<svg width="40" height="28" viewBox="0 0 40 28" fill="none" xmlns="http://www.w3.org/2000/svg">
<path d="M38.6469 0L0.854967 0C0.629418 0.00385637 0.414185 0.095173 0.254675 0.254683C0.0951647 0.414193 0.00385637 0.629426 0 0.854975L0 27.145C0.00385637 27.3706 0.0951647 27.5858 0.254675 27.7453C0.414185 27.9048 0.629418 27.9961 0.854967 28L38.6469 28C38.8725 27.9961 39.0877 27.9048 39.2472 27.7453C39.4067 27.5858 39.498 27.3706 39.5019 27.145V0.854975C39.4364 0.328628 39.0424 0 38.6469 0ZM32.0744 13.6059C32.1486 12.0679 32.7627 10.6052 33.8087 9.47521C34.8547 8.34517 36.2656 7.6201 37.7933 7.42748V20.4416C36.1496 20.2428 34.6434 19.4254 33.581 18.1556C32.5187 16.8857 31.9799 15.2589 32.0744 13.6059ZM18.9294 17.0885C17.4826 16.6945 16.4313 15.4522 16.4313 13.9345C16.4307 13.2039 16.6772 12.4946 17.1307 11.9217C17.5842 11.3489 18.2181 10.9462 18.9294 10.7792V17.0885ZM20.5657 10.7792C22.0125 11.1733 23.0638 12.4155 23.0638 13.9345C23.0643 14.665 22.8178 15.3742 22.3642 15.9468C21.9107 16.5194 21.2769 16.9218 20.5657 17.0885V10.7792ZM7.35385 13.4737C7.44244 15.1391 6.90493 16.7776 5.84696 18.0669C4.78899 19.3563 3.28705 20.2033 1.63631 20.4416L1.63631 7.42748C3.14547 7.61039 4.54336 8.31462 5.58852 9.41855C6.63369 10.5225 7.26049 11.9568 7.36067 13.4737H7.35385ZM1.64313 22.0847C5.71754 21.6252 8.67653 18.4699 9.00652 14.5918C9.19357 12.4415 8.52545 10.3041 7.14705 8.64314C5.76864 6.98216 3.79107 5.93147 1.64313 5.7189L1.64313 1.57631L18.9294 1.57631V9.07607C16.629 9.47015 14.7881 11.5087 14.7881 13.94C14.7911 15.1097 15.2089 16.2404 15.9672 17.1311C16.7255 18.0217 17.7751 18.6145 18.9294 18.8039V26.3037H1.64313L1.64313 22.0847ZM37.7933 26.2914L20.5725 26.2914V18.7917C22.8729 18.3976 24.7137 16.359 24.7137 13.9277C24.7079 12.7601 24.2888 11.6323 23.5308 10.7442C22.7727 9.85615 21.7247 9.26518 20.5725 9.07607V1.64313L37.7933 1.64313V5.78435C32.0744 6.37615 28.7936 12.4223 31.2208 17.484C32.403 19.9153 34.7661 21.8216 37.7933 22.0847V26.2914Z" fill="#BC3F43"/>
</svg>
