<svg width="30" height="30" viewBox="0 0 30 30" fill="none" xmlns="http://www.w3.org/2000/svg">
<path d="M2.32933 29H14.7364C14.8539 29 14.9666 28.9539 15.0497 28.8719C15.1328 28.7898 15.1795 28.6785 15.1795 28.5625C15.1795 28.4465 15.1328 28.3352 15.0497 28.2531C14.9666 28.1711 14.8539 28.125 14.7364 28.125H2.32933C2.21181 28.125 2.0991 28.0789 2.016 27.9969C1.9329 27.9148 1.88622 27.8035 1.88622 27.6875V2.3125C1.88622 2.19647 1.9329 2.08519 2.016 2.00314C2.0991 1.92109 2.21181 1.875 2.32933 1.875H20.9399C21.0574 1.875 21.1701 1.92109 21.2532 2.00314C21.3363 2.08519 21.383 2.19647 21.383 2.3125V6.6875C21.383 6.80353 21.4297 6.91481 21.5128 6.99686C21.5959 7.07891 21.7086 7.125 21.8261 7.125C21.9436 7.125 22.0563 7.07891 22.1394 6.99686C22.2225 6.91481 22.2692 6.80353 22.2692 6.6875V2.3125C22.2692 1.58887 21.6728 1 20.9399 1H2.32933C1.59642 1 1 1.58887 1 2.3125V27.6875C1 28.4111 1.59642 29 2.32933 29Z" fill="#BC3F43" stroke="#BC3F43" stroke-width="0.7"/>
<path d="M16.9521 10.1875V27.6875C16.9521 28.4111 17.5486 29 18.2815 29H28.0299C28.7628 29 29.3592 28.4111 29.3592 27.6875V10.1875C29.3592 9.46387 28.7628 8.875 28.0299 8.875H18.2815C17.5486 8.875 16.9521 9.46387 16.9521 10.1875ZM28.473 10.1875V27.6875C28.473 27.8035 28.4263 27.9148 28.3432 27.9969C28.2601 28.0789 28.1474 28.125 28.0299 28.125H18.2815C18.164 28.125 18.0512 28.0789 17.9681 27.9969C17.8851 27.9148 17.8384 27.8035 17.8384 27.6875V10.1875C17.8384 10.0715 17.8851 9.96019 17.9681 9.87814C18.0512 9.79609 18.164 9.75 18.2815 9.75H28.0299C28.1474 9.75 28.2601 9.79609 28.3432 9.87814C28.4263 9.96019 28.473 10.0715 28.473 10.1875Z" fill="#BC3F43" stroke="#BC3F43" stroke-width="0.7"/>
<path d="M11.6343 26.375C12.1237 26.375 12.5205 25.9832 12.5205 25.5C12.5205 25.0168 12.1237 24.625 11.6343 24.625C11.1448 24.625 10.748 25.0168 10.748 25.5C10.748 25.9832 11.1448 26.375 11.6343 26.375Z" fill="#BC3F43"/>
<path d="M23.1557 26.375C23.6452 26.375 24.042 25.9832 24.042 25.5C24.042 25.0168 23.6452 24.625 23.1557 24.625C22.6663 24.625 22.2695 25.0168 22.2695 25.5C22.2695 25.9832 22.6663 26.375 23.1557 26.375Z" fill="#BC3F43"/>
</svg>
