<svg width="22" height="22" viewBox="0 0 22 22" fill="none" xmlns="http://www.w3.org/2000/svg">
<mask id="path-1-outside-1_190_463" maskUnits="userSpaceOnUse" x="0.100098" y="0.100006" width="21" height="21" fill="black">
<rect fill="white" x="0.100098" y="0.100006" width="21" height="21"/>
<path d="M11.0001 1.10001C5.5415 1.10001 1.1001 5.54141 1.1001 11C1.1001 16.4586 5.5415 20.9 11.0001 20.9C16.4587 20.9 20.9001 16.4586 20.9001 11C20.9001 9.32539 20.4806 7.74805 19.7435 6.36407L19.2946 6.80235C19.9356 8.06446 20.3001 9.49063 20.3001 11C20.3001 16.1281 16.1282 20.3 11.0001 20.3C5.87197 20.3 1.7001 16.1281 1.7001 11C1.7001 5.87188 5.87197 1.70001 11.0001 1.70001C13.6368 1.70001 16.0181 2.80391 17.7126 4.57344L18.1403 4.15391C16.338 2.27422 13.8044 1.10001 11.0001 1.10001ZM11.0001 2.60001C10.8349 2.60001 10.7001 2.73477 10.7001 2.90001C10.7001 3.06524 10.8349 3.20001 11.0001 3.20001C11.1653 3.20001 11.3001 3.06524 11.3001 2.90001C11.3001 2.73477 11.1653 2.60001 11.0001 2.60001ZM12.588 2.75469C12.4415 2.75118 12.3149 2.85313 12.2856 2.99727C12.254 3.15899 12.3595 3.31719 12.5224 3.35001C12.6841 3.38165 12.8423 3.27618 12.8751 3.11446C12.9067 2.95157 12.8013 2.79337 12.6395 2.76055C12.622 2.75821 12.6056 2.75586 12.588 2.75469ZM9.42158 2.75586C9.40166 2.75586 9.38174 2.75704 9.36181 2.76055C9.19892 2.79337 9.09345 2.95157 9.12627 3.11446C9.1415 3.1918 9.1872 3.26094 9.254 3.30547C9.31963 3.34883 9.40049 3.36524 9.479 3.35001C9.64189 3.31719 9.74736 3.16016 9.71455 2.99727C9.68642 2.85782 9.56455 2.75704 9.42158 2.75586ZM7.90283 3.21641C7.86299 3.21641 7.82314 3.22344 7.78564 3.23868C7.63213 3.30313 7.55947 3.47774 7.62392 3.63126C7.6872 3.78477 7.86181 3.85743 8.01533 3.79415C8.16885 3.72969 8.2415 3.55508 8.17822 3.40157C8.13135 3.29024 8.02353 3.21758 7.90283 3.21641ZM14.1067 3.21641C13.9825 3.21407 13.87 3.28672 13.822 3.40157C13.7587 3.55508 13.8313 3.72969 13.9849 3.79415C14.1384 3.85743 14.313 3.78477 14.3763 3.63126C14.4407 3.47774 14.3681 3.30313 14.2145 3.23868C14.1806 3.22461 14.1431 3.21758 14.1067 3.21641ZM6.50361 3.96407C6.44267 3.96407 6.38291 3.98165 6.33252 4.01563C6.19541 4.10704 6.15791 4.29336 6.25049 4.43165C6.34189 4.56876 6.52822 4.60626 6.6665 4.51368C6.80478 4.42227 6.84111 4.23594 6.74971 4.09883C6.69463 4.01563 6.60205 3.96524 6.50361 3.96407ZM15.5048 3.96407C15.4028 3.9629 15.3067 4.01329 15.2505 4.09883C15.1579 4.23594 15.1954 4.42227 15.3325 4.51368C15.4708 4.60626 15.6571 4.56876 15.7485 4.43165C15.7931 4.36602 15.8095 4.28399 15.7942 4.20665C15.779 4.12813 15.7333 4.05899 15.6665 4.01563C15.6185 3.98282 15.5634 3.96524 15.5048 3.96407ZM19.4341 4.14688L10.3579 13.0332L7.11064 9.7168L6.46728 10.3473L10.3438 14.3059L20.0645 4.79024L19.4341 4.14688ZM5.27666 4.97188C5.1958 4.97188 5.11728 5.00352 5.06103 5.06094C4.94385 5.17696 4.94385 5.36797 5.06103 5.48399C5.17705 5.60118 5.36807 5.60118 5.48408 5.48399C5.60127 5.36797 5.60127 5.17696 5.48408 5.06094C5.429 5.00469 5.35517 4.97305 5.27666 4.97188ZM16.7317 4.97188C16.6509 4.97188 16.5724 5.00352 16.5161 5.06094C16.3989 5.17696 16.3989 5.36797 16.5161 5.48399C16.6321 5.60118 16.8231 5.60118 16.9392 5.48399C17.0563 5.36797 17.0563 5.17696 16.9392 5.06094C16.8841 5.00469 16.8102 4.97305 16.7317 4.97188ZM4.27002 6.2C4.16807 6.19766 4.07197 6.24805 4.01572 6.33243C3.92432 6.47071 3.96064 6.65704 4.09892 6.74844C4.23721 6.84102 4.42236 6.80352 4.51494 6.66641C4.60635 6.52813 4.57002 6.3418 4.43174 6.2504C4.38369 6.21875 4.32861 6.20118 4.27002 6.2ZM18.486 7.60039C18.4462 7.59922 18.4063 7.60743 18.3688 7.62266C18.2153 7.68594 18.1427 7.86172 18.206 8.01407C18.2704 8.16758 18.445 8.24024 18.5985 8.17696C18.752 8.11368 18.8247 7.93789 18.7614 7.78438C18.7145 7.67422 18.6067 7.60039 18.486 7.60039ZM3.52353 7.60039C3.39932 7.59805 3.28682 7.67071 3.23994 7.78555C3.17666 7.93907 3.24932 8.11368 3.40166 8.17813C3.55518 8.24141 3.73096 8.16875 3.79424 8.01524C3.85752 7.86172 3.78486 7.68711 3.63135 7.62383C3.59736 7.6086 3.56103 7.60157 3.52353 7.60039ZM18.9454 9.12032C18.9255 9.11914 18.9056 9.12149 18.8856 9.125C18.7239 9.15782 18.6185 9.31602 18.6501 9.47774C18.6829 9.64063 18.8411 9.7461 19.0028 9.71446C19.1657 9.68164 19.2712 9.52344 19.2395 9.36055C19.2114 9.2211 19.0884 9.12032 18.9454 9.12032ZM3.06416 9.12032C2.91768 9.1168 2.79111 9.21758 2.76182 9.36055C2.74658 9.43907 2.76182 9.5211 2.80635 9.58672C2.85088 9.65352 2.92002 9.69922 2.99853 9.71446C3.07588 9.72969 3.15674 9.71329 3.22353 9.66993C3.28916 9.62539 3.33486 9.55625 3.3501 9.47774C3.38291 9.31602 3.27744 9.15782 3.11572 9.125C3.09814 9.12266 3.08174 9.12032 3.06416 9.12032ZM2.9001 10.7C2.73486 10.7 2.6001 10.8348 2.6001 11C2.6001 11.1652 2.73486 11.3 2.9001 11.3C3.06533 11.3 3.2001 11.1652 3.2001 11C3.2001 10.8348 3.06533 10.7 2.9001 10.7ZM19.1001 10.7C18.9349 10.7 18.8001 10.8348 18.8001 11C18.8001 11.1652 18.9349 11.3 19.1001 11.3C19.2653 11.3 19.4001 11.1652 19.4001 11C19.4001 10.8348 19.2653 10.7 19.1001 10.7ZM3.05713 12.2797C3.03721 12.2797 3.01728 12.282 2.99736 12.2856C2.83447 12.3184 2.729 12.4766 2.76182 12.6395C2.79463 12.8012 2.95166 12.9066 3.11455 12.875C3.27744 12.8422 3.38291 12.684 3.3501 12.5223C3.32197 12.3816 3.2001 12.2809 3.05713 12.2797ZM18.9524 12.2797C18.806 12.2762 18.6794 12.3781 18.6501 12.5223C18.6185 12.684 18.7239 12.8422 18.8856 12.875C19.0485 12.9066 19.2067 12.8012 19.2395 12.6395C19.2712 12.4766 19.1657 12.3184 19.0028 12.2856C18.9864 12.2832 18.97 12.2809 18.9524 12.2797ZM18.4907 13.7984C18.3665 13.7961 18.254 13.8699 18.206 13.9848C18.1427 14.1371 18.2153 14.3129 18.3688 14.3762C18.5224 14.4395 18.697 14.3668 18.7614 14.2145C18.8247 14.0609 18.752 13.8852 18.5985 13.8219C18.5645 13.8078 18.527 13.7996 18.4907 13.7984ZM3.51885 13.7996C3.479 13.7996 3.43916 13.8066 3.40166 13.8219C3.329 13.8523 3.27041 13.9109 3.23994 13.9848C3.20947 14.0586 3.20947 14.1406 3.23877 14.2145C3.30322 14.368 3.47783 14.4406 3.63135 14.3762C3.70518 14.3469 3.76377 14.2883 3.79424 14.2145C3.82471 14.1406 3.82471 14.0586 3.79424 13.9848C3.74853 13.8734 3.63955 13.8008 3.51885 13.7996ZM17.7407 15.2C17.6388 15.1977 17.5427 15.248 17.4864 15.3324C17.3938 15.4707 17.4313 15.6559 17.5685 15.7484C17.6341 15.793 17.7161 15.8094 17.7935 15.793C17.872 15.7777 17.9411 15.732 17.9845 15.6652C18.077 15.5281 18.0395 15.3418 17.9013 15.2504C17.8544 15.2176 17.7981 15.2 17.7407 15.2ZM4.26885 15.2C4.20791 15.1988 4.14932 15.2164 4.09892 15.2504C3.96182 15.343 3.92432 15.5281 4.01572 15.6664C4.1083 15.8035 4.29463 15.841 4.43291 15.7484C4.57002 15.657 4.60752 15.4707 4.51494 15.3324C4.45986 15.2504 4.36728 15.2012 4.26885 15.2ZM5.27666 16.4281C5.1958 16.427 5.11728 16.4586 5.06103 16.516C4.94385 16.632 4.94385 16.823 5.06103 16.9391C5.17705 17.0563 5.36807 17.0563 5.48408 16.9391C5.60127 16.823 5.60127 16.632 5.48408 16.516C5.429 16.4598 5.35517 16.4281 5.27666 16.4281ZM16.7317 16.4281C16.6509 16.427 16.5724 16.4586 16.5161 16.516C16.3989 16.632 16.3989 16.823 16.5161 16.9391C16.6321 17.0563 16.8231 17.0563 16.9392 16.9391C17.0563 16.823 17.0563 16.632 16.9392 16.516C16.8841 16.4598 16.8102 16.4281 16.7317 16.4281ZM6.50596 17.4348C6.404 17.4324 6.30791 17.4828 6.25166 17.5672C6.15908 17.7055 6.19658 17.8918 6.33486 17.9844C6.47197 18.0758 6.6583 18.0383 6.74971 17.9012C6.84228 17.7629 6.80478 17.5777 6.66767 17.4852C6.61963 17.4535 6.56338 17.4348 6.50596 17.4348ZM15.5036 17.4348C15.4427 17.4336 15.3841 17.4512 15.3337 17.484C15.2669 17.5285 15.2212 17.5977 15.206 17.6762C15.1907 17.7535 15.2071 17.8355 15.2517 17.9012C15.3431 18.0383 15.5294 18.0758 15.6677 17.9844C15.8048 17.8918 15.8423 17.7055 15.7497 17.5672C15.6958 17.4852 15.6032 17.4348 15.5036 17.4348ZM7.90752 18.1824C7.7833 18.1801 7.6708 18.2539 7.62392 18.3688C7.56064 18.5211 7.6333 18.6969 7.78564 18.7602C7.93916 18.8234 8.11494 18.7508 8.17822 18.5984C8.2415 18.4449 8.16885 18.2691 8.01533 18.2059C7.98135 18.1918 7.94502 18.1836 7.90752 18.1824ZM14.102 18.1824C14.0622 18.1824 14.0224 18.1906 13.986 18.2059C13.9122 18.2363 13.8536 18.2949 13.8231 18.3676C13.7927 18.4414 13.7927 18.5246 13.822 18.5984C13.8864 18.7508 14.061 18.8234 14.2145 18.7602C14.2884 18.7297 14.347 18.6711 14.3774 18.5984C14.4079 18.5246 14.4079 18.4414 14.3774 18.3688C14.3317 18.2563 14.2227 18.1836 14.102 18.1824ZM9.42861 18.6441C9.28213 18.6406 9.15439 18.7426 9.12627 18.8855C9.09345 19.0484 9.19892 19.2055 9.36181 19.2383C9.5247 19.2711 9.68174 19.1656 9.71455 19.0027C9.74736 18.8398 9.64189 18.6828 9.479 18.65C9.46259 18.6465 9.44502 18.6441 9.42861 18.6441ZM12.581 18.6453C12.561 18.6441 12.5411 18.6465 12.5224 18.65C12.3595 18.6828 12.254 18.8398 12.2856 19.0027C12.302 19.0812 12.3478 19.1492 12.4134 19.1938C12.4802 19.2383 12.561 19.2547 12.6395 19.2395C12.7169 19.223 12.786 19.1773 12.8306 19.1117C12.8739 19.0449 12.8903 18.9641 12.8751 18.8855C12.847 18.7461 12.7239 18.6453 12.581 18.6453ZM11.0001 18.8C10.8349 18.8 10.7001 18.9348 10.7001 19.1C10.7001 19.2652 10.8349 19.4 11.0001 19.4C11.1653 19.4 11.3001 19.2652 11.3001 19.1C11.3001 18.9348 11.1653 18.8 11.0001 18.8Z"/>
</mask>
<path d="M11.0001 1.10001C5.5415 1.10001 1.1001 5.54141 1.1001 11C1.1001 16.4586 5.5415 20.9 11.0001 20.9C16.4587 20.9 20.9001 16.4586 20.9001 11C20.9001 9.32539 20.4806 7.74805 19.7435 6.36407L19.2946 6.80235C19.9356 8.06446 20.3001 9.49063 20.3001 11C20.3001 16.1281 16.1282 20.3 11.0001 20.3C5.87197 20.3 1.7001 16.1281 1.7001 11C1.7001 5.87188 5.87197 1.70001 11.0001 1.70001C13.6368 1.70001 16.0181 2.80391 17.7126 4.57344L18.1403 4.15391C16.338 2.27422 13.8044 1.10001 11.0001 1.10001ZM11.0001 2.60001C10.8349 2.60001 10.7001 2.73477 10.7001 2.90001C10.7001 3.06524 10.8349 3.20001 11.0001 3.20001C11.1653 3.20001 11.3001 3.06524 11.3001 2.90001C11.3001 2.73477 11.1653 2.60001 11.0001 2.60001ZM12.588 2.75469C12.4415 2.75118 12.3149 2.85313 12.2856 2.99727C12.254 3.15899 12.3595 3.31719 12.5224 3.35001C12.6841 3.38165 12.8423 3.27618 12.8751 3.11446C12.9067 2.95157 12.8013 2.79337 12.6395 2.76055C12.622 2.75821 12.6056 2.75586 12.588 2.75469ZM9.42158 2.75586C9.40166 2.75586 9.38174 2.75704 9.36181 2.76055C9.19892 2.79337 9.09345 2.95157 9.12627 3.11446C9.1415 3.1918 9.1872 3.26094 9.254 3.30547C9.31963 3.34883 9.40049 3.36524 9.479 3.35001C9.64189 3.31719 9.74736 3.16016 9.71455 2.99727C9.68642 2.85782 9.56455 2.75704 9.42158 2.75586ZM7.90283 3.21641C7.86299 3.21641 7.82314 3.22344 7.78564 3.23868C7.63213 3.30313 7.55947 3.47774 7.62392 3.63126C7.6872 3.78477 7.86181 3.85743 8.01533 3.79415C8.16885 3.72969 8.2415 3.55508 8.17822 3.40157C8.13135 3.29024 8.02353 3.21758 7.90283 3.21641ZM14.1067 3.21641C13.9825 3.21407 13.87 3.28672 13.822 3.40157C13.7587 3.55508 13.8313 3.72969 13.9849 3.79415C14.1384 3.85743 14.313 3.78477 14.3763 3.63126C14.4407 3.47774 14.3681 3.30313 14.2145 3.23868C14.1806 3.22461 14.1431 3.21758 14.1067 3.21641ZM6.50361 3.96407C6.44267 3.96407 6.38291 3.98165 6.33252 4.01563C6.19541 4.10704 6.15791 4.29336 6.25049 4.43165C6.34189 4.56876 6.52822 4.60626 6.6665 4.51368C6.80478 4.42227 6.84111 4.23594 6.74971 4.09883C6.69463 4.01563 6.60205 3.96524 6.50361 3.96407ZM15.5048 3.96407C15.4028 3.9629 15.3067 4.01329 15.2505 4.09883C15.1579 4.23594 15.1954 4.42227 15.3325 4.51368C15.4708 4.60626 15.6571 4.56876 15.7485 4.43165C15.7931 4.36602 15.8095 4.28399 15.7942 4.20665C15.779 4.12813 15.7333 4.05899 15.6665 4.01563C15.6185 3.98282 15.5634 3.96524 15.5048 3.96407ZM19.4341 4.14688L10.3579 13.0332L7.11064 9.7168L6.46728 10.3473L10.3438 14.3059L20.0645 4.79024L19.4341 4.14688ZM5.27666 4.97188C5.1958 4.97188 5.11728 5.00352 5.06103 5.06094C4.94385 5.17696 4.94385 5.36797 5.06103 5.48399C5.17705 5.60118 5.36807 5.60118 5.48408 5.48399C5.60127 5.36797 5.60127 5.17696 5.48408 5.06094C5.429 5.00469 5.35517 4.97305 5.27666 4.97188ZM16.7317 4.97188C16.6509 4.97188 16.5724 5.00352 16.5161 5.06094C16.3989 5.17696 16.3989 5.36797 16.5161 5.48399C16.6321 5.60118 16.8231 5.60118 16.9392 5.48399C17.0563 5.36797 17.0563 5.17696 16.9392 5.06094C16.8841 5.00469 16.8102 4.97305 16.7317 4.97188ZM4.27002 6.2C4.16807 6.19766 4.07197 6.24805 4.01572 6.33243C3.92432 6.47071 3.96064 6.65704 4.09892 6.74844C4.23721 6.84102 4.42236 6.80352 4.51494 6.66641C4.60635 6.52813 4.57002 6.3418 4.43174 6.2504C4.38369 6.21875 4.32861 6.20118 4.27002 6.2ZM18.486 7.60039C18.4462 7.59922 18.4063 7.60743 18.3688 7.62266C18.2153 7.68594 18.1427 7.86172 18.206 8.01407C18.2704 8.16758 18.445 8.24024 18.5985 8.17696C18.752 8.11368 18.8247 7.93789 18.7614 7.78438C18.7145 7.67422 18.6067 7.60039 18.486 7.60039ZM3.52353 7.60039C3.39932 7.59805 3.28682 7.67071 3.23994 7.78555C3.17666 7.93907 3.24932 8.11368 3.40166 8.17813C3.55518 8.24141 3.73096 8.16875 3.79424 8.01524C3.85752 7.86172 3.78486 7.68711 3.63135 7.62383C3.59736 7.6086 3.56103 7.60157 3.52353 7.60039ZM18.9454 9.12032C18.9255 9.11914 18.9056 9.12149 18.8856 9.125C18.7239 9.15782 18.6185 9.31602 18.6501 9.47774C18.6829 9.64063 18.8411 9.7461 19.0028 9.71446C19.1657 9.68164 19.2712 9.52344 19.2395 9.36055C19.2114 9.2211 19.0884 9.12032 18.9454 9.12032ZM3.06416 9.12032C2.91768 9.1168 2.79111 9.21758 2.76182 9.36055C2.74658 9.43907 2.76182 9.5211 2.80635 9.58672C2.85088 9.65352 2.92002 9.69922 2.99853 9.71446C3.07588 9.72969 3.15674 9.71329 3.22353 9.66993C3.28916 9.62539 3.33486 9.55625 3.3501 9.47774C3.38291 9.31602 3.27744 9.15782 3.11572 9.125C3.09814 9.12266 3.08174 9.12032 3.06416 9.12032ZM2.9001 10.7C2.73486 10.7 2.6001 10.8348 2.6001 11C2.6001 11.1652 2.73486 11.3 2.9001 11.3C3.06533 11.3 3.2001 11.1652 3.2001 11C3.2001 10.8348 3.06533 10.7 2.9001 10.7ZM19.1001 10.7C18.9349 10.7 18.8001 10.8348 18.8001 11C18.8001 11.1652 18.9349 11.3 19.1001 11.3C19.2653 11.3 19.4001 11.1652 19.4001 11C19.4001 10.8348 19.2653 10.7 19.1001 10.7ZM3.05713 12.2797C3.03721 12.2797 3.01728 12.282 2.99736 12.2856C2.83447 12.3184 2.729 12.4766 2.76182 12.6395C2.79463 12.8012 2.95166 12.9066 3.11455 12.875C3.27744 12.8422 3.38291 12.684 3.3501 12.5223C3.32197 12.3816 3.2001 12.2809 3.05713 12.2797ZM18.9524 12.2797C18.806 12.2762 18.6794 12.3781 18.6501 12.5223C18.6185 12.684 18.7239 12.8422 18.8856 12.875C19.0485 12.9066 19.2067 12.8012 19.2395 12.6395C19.2712 12.4766 19.1657 12.3184 19.0028 12.2856C18.9864 12.2832 18.97 12.2809 18.9524 12.2797ZM18.4907 13.7984C18.3665 13.7961 18.254 13.8699 18.206 13.9848C18.1427 14.1371 18.2153 14.3129 18.3688 14.3762C18.5224 14.4395 18.697 14.3668 18.7614 14.2145C18.8247 14.0609 18.752 13.8852 18.5985 13.8219C18.5645 13.8078 18.527 13.7996 18.4907 13.7984ZM3.51885 13.7996C3.479 13.7996 3.43916 13.8066 3.40166 13.8219C3.329 13.8523 3.27041 13.9109 3.23994 13.9848C3.20947 14.0586 3.20947 14.1406 3.23877 14.2145C3.30322 14.368 3.47783 14.4406 3.63135 14.3762C3.70518 14.3469 3.76377 14.2883 3.79424 14.2145C3.82471 14.1406 3.82471 14.0586 3.79424 13.9848C3.74853 13.8734 3.63955 13.8008 3.51885 13.7996ZM17.7407 15.2C17.6388 15.1977 17.5427 15.248 17.4864 15.3324C17.3938 15.4707 17.4313 15.6559 17.5685 15.7484C17.6341 15.793 17.7161 15.8094 17.7935 15.793C17.872 15.7777 17.9411 15.732 17.9845 15.6652C18.077 15.5281 18.0395 15.3418 17.9013 15.2504C17.8544 15.2176 17.7981 15.2 17.7407 15.2ZM4.26885 15.2C4.20791 15.1988 4.14932 15.2164 4.09892 15.2504C3.96182 15.343 3.92432 15.5281 4.01572 15.6664C4.1083 15.8035 4.29463 15.841 4.43291 15.7484C4.57002 15.657 4.60752 15.4707 4.51494 15.3324C4.45986 15.2504 4.36728 15.2012 4.26885 15.2ZM5.27666 16.4281C5.1958 16.427 5.11728 16.4586 5.06103 16.516C4.94385 16.632 4.94385 16.823 5.06103 16.9391C5.17705 17.0563 5.36807 17.0563 5.48408 16.9391C5.60127 16.823 5.60127 16.632 5.48408 16.516C5.429 16.4598 5.35517 16.4281 5.27666 16.4281ZM16.7317 16.4281C16.6509 16.427 16.5724 16.4586 16.5161 16.516C16.3989 16.632 16.3989 16.823 16.5161 16.9391C16.6321 17.0563 16.8231 17.0563 16.9392 16.9391C17.0563 16.823 17.0563 16.632 16.9392 16.516C16.8841 16.4598 16.8102 16.4281 16.7317 16.4281ZM6.50596 17.4348C6.404 17.4324 6.30791 17.4828 6.25166 17.5672C6.15908 17.7055 6.19658 17.8918 6.33486 17.9844C6.47197 18.0758 6.6583 18.0383 6.74971 17.9012C6.84228 17.7629 6.80478 17.5777 6.66767 17.4852C6.61963 17.4535 6.56338 17.4348 6.50596 17.4348ZM15.5036 17.4348C15.4427 17.4336 15.3841 17.4512 15.3337 17.484C15.2669 17.5285 15.2212 17.5977 15.206 17.6762C15.1907 17.7535 15.2071 17.8355 15.2517 17.9012C15.3431 18.0383 15.5294 18.0758 15.6677 17.9844C15.8048 17.8918 15.8423 17.7055 15.7497 17.5672C15.6958 17.4852 15.6032 17.4348 15.5036 17.4348ZM7.90752 18.1824C7.7833 18.1801 7.6708 18.2539 7.62392 18.3688C7.56064 18.5211 7.6333 18.6969 7.78564 18.7602C7.93916 18.8234 8.11494 18.7508 8.17822 18.5984C8.2415 18.4449 8.16885 18.2691 8.01533 18.2059C7.98135 18.1918 7.94502 18.1836 7.90752 18.1824ZM14.102 18.1824C14.0622 18.1824 14.0224 18.1906 13.986 18.2059C13.9122 18.2363 13.8536 18.2949 13.8231 18.3676C13.7927 18.4414 13.7927 18.5246 13.822 18.5984C13.8864 18.7508 14.061 18.8234 14.2145 18.7602C14.2884 18.7297 14.347 18.6711 14.3774 18.5984C14.4079 18.5246 14.4079 18.4414 14.3774 18.3688C14.3317 18.2563 14.2227 18.1836 14.102 18.1824ZM9.42861 18.6441C9.28213 18.6406 9.15439 18.7426 9.12627 18.8855C9.09345 19.0484 9.19892 19.2055 9.36181 19.2383C9.5247 19.2711 9.68174 19.1656 9.71455 19.0027C9.74736 18.8398 9.64189 18.6828 9.479 18.65C9.46259 18.6465 9.44502 18.6441 9.42861 18.6441ZM12.581 18.6453C12.561 18.6441 12.5411 18.6465 12.5224 18.65C12.3595 18.6828 12.254 18.8398 12.2856 19.0027C12.302 19.0812 12.3478 19.1492 12.4134 19.1938C12.4802 19.2383 12.561 19.2547 12.6395 19.2395C12.7169 19.223 12.786 19.1773 12.8306 19.1117C12.8739 19.0449 12.8903 18.9641 12.8751 18.8855C12.847 18.7461 12.7239 18.6453 12.581 18.6453ZM11.0001 18.8C10.8349 18.8 10.7001 18.9348 10.7001 19.1C10.7001 19.2652 10.8349 19.4 11.0001 19.4C11.1653 19.4 11.3001 19.2652 11.3001 19.1C11.3001 18.9348 11.1653 18.8 11.0001 18.8Z" fill="#221E1E"/>
<path d="M11.0001 1.10001C5.5415 1.10001 1.1001 5.54141 1.1001 11C1.1001 16.4586 5.5415 20.9 11.0001 20.9C16.4587 20.9 20.9001 16.4586 20.9001 11C20.9001 9.32539 20.4806 7.74805 19.7435 6.36407L19.2946 6.80235C19.9356 8.06446 20.3001 9.49063 20.3001 11C20.3001 16.1281 16.1282 20.3 11.0001 20.3C5.87197 20.3 1.7001 16.1281 1.7001 11C1.7001 5.87188 5.87197 1.70001 11.0001 1.70001C13.6368 1.70001 16.0181 2.80391 17.7126 4.57344L18.1403 4.15391C16.338 2.27422 13.8044 1.10001 11.0001 1.10001ZM11.0001 2.60001C10.8349 2.60001 10.7001 2.73477 10.7001 2.90001C10.7001 3.06524 10.8349 3.20001 11.0001 3.20001C11.1653 3.20001 11.3001 3.06524 11.3001 2.90001C11.3001 2.73477 11.1653 2.60001 11.0001 2.60001ZM12.588 2.75469C12.4415 2.75118 12.3149 2.85313 12.2856 2.99727C12.254 3.15899 12.3595 3.31719 12.5224 3.35001C12.6841 3.38165 12.8423 3.27618 12.8751 3.11446C12.9067 2.95157 12.8013 2.79337 12.6395 2.76055C12.622 2.75821 12.6056 2.75586 12.588 2.75469ZM9.42158 2.75586C9.40166 2.75586 9.38174 2.75704 9.36181 2.76055C9.19892 2.79337 9.09345 2.95157 9.12627 3.11446C9.1415 3.1918 9.1872 3.26094 9.254 3.30547C9.31963 3.34883 9.40049 3.36524 9.479 3.35001C9.64189 3.31719 9.74736 3.16016 9.71455 2.99727C9.68642 2.85782 9.56455 2.75704 9.42158 2.75586ZM7.90283 3.21641C7.86299 3.21641 7.82314 3.22344 7.78564 3.23868C7.63213 3.30313 7.55947 3.47774 7.62392 3.63126C7.6872 3.78477 7.86181 3.85743 8.01533 3.79415C8.16885 3.72969 8.2415 3.55508 8.17822 3.40157C8.13135 3.29024 8.02353 3.21758 7.90283 3.21641ZM14.1067 3.21641C13.9825 3.21407 13.87 3.28672 13.822 3.40157C13.7587 3.55508 13.8313 3.72969 13.9849 3.79415C14.1384 3.85743 14.313 3.78477 14.3763 3.63126C14.4407 3.47774 14.3681 3.30313 14.2145 3.23868C14.1806 3.22461 14.1431 3.21758 14.1067 3.21641ZM6.50361 3.96407C6.44267 3.96407 6.38291 3.98165 6.33252 4.01563C6.19541 4.10704 6.15791 4.29336 6.25049 4.43165C6.34189 4.56876 6.52822 4.60626 6.6665 4.51368C6.80478 4.42227 6.84111 4.23594 6.74971 4.09883C6.69463 4.01563 6.60205 3.96524 6.50361 3.96407ZM15.5048 3.96407C15.4028 3.9629 15.3067 4.01329 15.2505 4.09883C15.1579 4.23594 15.1954 4.42227 15.3325 4.51368C15.4708 4.60626 15.6571 4.56876 15.7485 4.43165C15.7931 4.36602 15.8095 4.28399 15.7942 4.20665C15.779 4.12813 15.7333 4.05899 15.6665 4.01563C15.6185 3.98282 15.5634 3.96524 15.5048 3.96407ZM19.4341 4.14688L10.3579 13.0332L7.11064 9.7168L6.46728 10.3473L10.3438 14.3059L20.0645 4.79024L19.4341 4.14688ZM5.27666 4.97188C5.1958 4.97188 5.11728 5.00352 5.06103 5.06094C4.94385 5.17696 4.94385 5.36797 5.06103 5.48399C5.17705 5.60118 5.36807 5.60118 5.48408 5.48399C5.60127 5.36797 5.60127 5.17696 5.48408 5.06094C5.429 5.00469 5.35517 4.97305 5.27666 4.97188ZM16.7317 4.97188C16.6509 4.97188 16.5724 5.00352 16.5161 5.06094C16.3989 5.17696 16.3989 5.36797 16.5161 5.48399C16.6321 5.60118 16.8231 5.60118 16.9392 5.48399C17.0563 5.36797 17.0563 5.17696 16.9392 5.06094C16.8841 5.00469 16.8102 4.97305 16.7317 4.97188ZM4.27002 6.2C4.16807 6.19766 4.07197 6.24805 4.01572 6.33243C3.92432 6.47071 3.96064 6.65704 4.09892 6.74844C4.23721 6.84102 4.42236 6.80352 4.51494 6.66641C4.60635 6.52813 4.57002 6.3418 4.43174 6.2504C4.38369 6.21875 4.32861 6.20118 4.27002 6.2ZM18.486 7.60039C18.4462 7.59922 18.4063 7.60743 18.3688 7.62266C18.2153 7.68594 18.1427 7.86172 18.206 8.01407C18.2704 8.16758 18.445 8.24024 18.5985 8.17696C18.752 8.11368 18.8247 7.93789 18.7614 7.78438C18.7145 7.67422 18.6067 7.60039 18.486 7.60039ZM3.52353 7.60039C3.39932 7.59805 3.28682 7.67071 3.23994 7.78555C3.17666 7.93907 3.24932 8.11368 3.40166 8.17813C3.55518 8.24141 3.73096 8.16875 3.79424 8.01524C3.85752 7.86172 3.78486 7.68711 3.63135 7.62383C3.59736 7.6086 3.56103 7.60157 3.52353 7.60039ZM18.9454 9.12032C18.9255 9.11914 18.9056 9.12149 18.8856 9.125C18.7239 9.15782 18.6185 9.31602 18.6501 9.47774C18.6829 9.64063 18.8411 9.7461 19.0028 9.71446C19.1657 9.68164 19.2712 9.52344 19.2395 9.36055C19.2114 9.2211 19.0884 9.12032 18.9454 9.12032ZM3.06416 9.12032C2.91768 9.1168 2.79111 9.21758 2.76182 9.36055C2.74658 9.43907 2.76182 9.5211 2.80635 9.58672C2.85088 9.65352 2.92002 9.69922 2.99853 9.71446C3.07588 9.72969 3.15674 9.71329 3.22353 9.66993C3.28916 9.62539 3.33486 9.55625 3.3501 9.47774C3.38291 9.31602 3.27744 9.15782 3.11572 9.125C3.09814 9.12266 3.08174 9.12032 3.06416 9.12032ZM2.9001 10.7C2.73486 10.7 2.6001 10.8348 2.6001 11C2.6001 11.1652 2.73486 11.3 2.9001 11.3C3.06533 11.3 3.2001 11.1652 3.2001 11C3.2001 10.8348 3.06533 10.7 2.9001 10.7ZM19.1001 10.7C18.9349 10.7 18.8001 10.8348 18.8001 11C18.8001 11.1652 18.9349 11.3 19.1001 11.3C19.2653 11.3 19.4001 11.1652 19.4001 11C19.4001 10.8348 19.2653 10.7 19.1001 10.7ZM3.05713 12.2797C3.03721 12.2797 3.01728 12.282 2.99736 12.2856C2.83447 12.3184 2.729 12.4766 2.76182 12.6395C2.79463 12.8012 2.95166 12.9066 3.11455 12.875C3.27744 12.8422 3.38291 12.684 3.3501 12.5223C3.32197 12.3816 3.2001 12.2809 3.05713 12.2797ZM18.9524 12.2797C18.806 12.2762 18.6794 12.3781 18.6501 12.5223C18.6185 12.684 18.7239 12.8422 18.8856 12.875C19.0485 12.9066 19.2067 12.8012 19.2395 12.6395C19.2712 12.4766 19.1657 12.3184 19.0028 12.2856C18.9864 12.2832 18.97 12.2809 18.9524 12.2797ZM18.4907 13.7984C18.3665 13.7961 18.254 13.8699 18.206 13.9848C18.1427 14.1371 18.2153 14.3129 18.3688 14.3762C18.5224 14.4395 18.697 14.3668 18.7614 14.2145C18.8247 14.0609 18.752 13.8852 18.5985 13.8219C18.5645 13.8078 18.527 13.7996 18.4907 13.7984ZM3.51885 13.7996C3.479 13.7996 3.43916 13.8066 3.40166 13.8219C3.329 13.8523 3.27041 13.9109 3.23994 13.9848C3.20947 14.0586 3.20947 14.1406 3.23877 14.2145C3.30322 14.368 3.47783 14.4406 3.63135 14.3762C3.70518 14.3469 3.76377 14.2883 3.79424 14.2145C3.82471 14.1406 3.82471 14.0586 3.79424 13.9848C3.74853 13.8734 3.63955 13.8008 3.51885 13.7996ZM17.7407 15.2C17.6388 15.1977 17.5427 15.248 17.4864 15.3324C17.3938 15.4707 17.4313 15.6559 17.5685 15.7484C17.6341 15.793 17.7161 15.8094 17.7935 15.793C17.872 15.7777 17.9411 15.732 17.9845 15.6652C18.077 15.5281 18.0395 15.3418 17.9013 15.2504C17.8544 15.2176 17.7981 15.2 17.7407 15.2ZM4.26885 15.2C4.20791 15.1988 4.14932 15.2164 4.09892 15.2504C3.96182 15.343 3.92432 15.5281 4.01572 15.6664C4.1083 15.8035 4.29463 15.841 4.43291 15.7484C4.57002 15.657 4.60752 15.4707 4.51494 15.3324C4.45986 15.2504 4.36728 15.2012 4.26885 15.2ZM5.27666 16.4281C5.1958 16.427 5.11728 16.4586 5.06103 16.516C4.94385 16.632 4.94385 16.823 5.06103 16.9391C5.17705 17.0563 5.36807 17.0563 5.48408 16.9391C5.60127 16.823 5.60127 16.632 5.48408 16.516C5.429 16.4598 5.35517 16.4281 5.27666 16.4281ZM16.7317 16.4281C16.6509 16.427 16.5724 16.4586 16.5161 16.516C16.3989 16.632 16.3989 16.823 16.5161 16.9391C16.6321 17.0563 16.8231 17.0563 16.9392 16.9391C17.0563 16.823 17.0563 16.632 16.9392 16.516C16.8841 16.4598 16.8102 16.4281 16.7317 16.4281ZM6.50596 17.4348C6.404 17.4324 6.30791 17.4828 6.25166 17.5672C6.15908 17.7055 6.19658 17.8918 6.33486 17.9844C6.47197 18.0758 6.6583 18.0383 6.74971 17.9012C6.84228 17.7629 6.80478 17.5777 6.66767 17.4852C6.61963 17.4535 6.56338 17.4348 6.50596 17.4348ZM15.5036 17.4348C15.4427 17.4336 15.3841 17.4512 15.3337 17.484C15.2669 17.5285 15.2212 17.5977 15.206 17.6762C15.1907 17.7535 15.2071 17.8355 15.2517 17.9012C15.3431 18.0383 15.5294 18.0758 15.6677 17.9844C15.8048 17.8918 15.8423 17.7055 15.7497 17.5672C15.6958 17.4852 15.6032 17.4348 15.5036 17.4348ZM7.90752 18.1824C7.7833 18.1801 7.6708 18.2539 7.62392 18.3688C7.56064 18.5211 7.6333 18.6969 7.78564 18.7602C7.93916 18.8234 8.11494 18.7508 8.17822 18.5984C8.2415 18.4449 8.16885 18.2691 8.01533 18.2059C7.98135 18.1918 7.94502 18.1836 7.90752 18.1824ZM14.102 18.1824C14.0622 18.1824 14.0224 18.1906 13.986 18.2059C13.9122 18.2363 13.8536 18.2949 13.8231 18.3676C13.7927 18.4414 13.7927 18.5246 13.822 18.5984C13.8864 18.7508 14.061 18.8234 14.2145 18.7602C14.2884 18.7297 14.347 18.6711 14.3774 18.5984C14.4079 18.5246 14.4079 18.4414 14.3774 18.3688C14.3317 18.2563 14.2227 18.1836 14.102 18.1824ZM9.42861 18.6441C9.28213 18.6406 9.15439 18.7426 9.12627 18.8855C9.09345 19.0484 9.19892 19.2055 9.36181 19.2383C9.5247 19.2711 9.68174 19.1656 9.71455 19.0027C9.74736 18.8398 9.64189 18.6828 9.479 18.65C9.46259 18.6465 9.44502 18.6441 9.42861 18.6441ZM12.581 18.6453C12.561 18.6441 12.5411 18.6465 12.5224 18.65C12.3595 18.6828 12.254 18.8398 12.2856 19.0027C12.302 19.0812 12.3478 19.1492 12.4134 19.1938C12.4802 19.2383 12.561 19.2547 12.6395 19.2395C12.7169 19.223 12.786 19.1773 12.8306 19.1117C12.8739 19.0449 12.8903 18.9641 12.8751 18.8855C12.847 18.7461 12.7239 18.6453 12.581 18.6453ZM11.0001 18.8C10.8349 18.8 10.7001 18.9348 10.7001 19.1C10.7001 19.2652 10.8349 19.4 11.0001 19.4C11.1653 19.4 11.3001 19.2652 11.3001 19.1C11.3001 18.9348 11.1653 18.8 11.0001 18.8Z" stroke="#221E1E" stroke-width="0.4" mask="url(#path-1-outside-1_190_463)"/>
</svg>
