<?xml version="1.0" encoding="UTF-8"?>
<!DOCTYPE svg PUBLIC "-//W3C//DTD SVG 1.1//EN" "http://www.w3.org/Graphics/SVG/1.1/DTD/svg11.dtd">
<svg xmlns="http://www.w3.org/2000/svg" version="1.1" width="29px" height="28px" style="shape-rendering:geometricPrecision; text-rendering:geometricPrecision; image-rendering:optimizeQuality; fill-rule:evenodd; clip-rule:evenodd" xmlns:xlink="http://www.w3.org/1999/xlink">
<g><path style="opacity:0.84" fill="#bb3f42" d="M 10.5,-0.5 C 13.1667,-0.5 15.8333,-0.5 18.5,-0.5C 21.7976,1.48541 25.1309,3.48541 28.5,5.5C 28.5,7.16667 28.5,8.83333 28.5,10.5C 25.0766,12.4474 21.4099,13.9474 17.5,15C 16.6667,15.8333 15.8333,16.6667 15,17.5C 14.3208,21.0391 13.1542,24.3724 11.5,27.5C 9.83333,27.5 8.16667,27.5 6.5,27.5C 3.63325,23.7603 1.29992,19.7603 -0.5,15.5C -0.5,14.1667 -0.5,12.8333 -0.5,11.5C 3.1384,7.52592 6.80506,3.52592 10.5,-0.5 Z M 12.5,1.5 C 17.707,2.10339 22.0404,4.27006 25.5,8C 25.0946,8.94544 24.428,9.61211 23.5,10C 19.1717,10.3263 15.6717,12.1596 13,15.5C 12.2682,19.1145 10.9349,22.4479 9,25.5C 3.24151,20.6171 1.90817,14.9504 5,8.5C 7.39587,5.93337 9.89587,3.60004 12.5,1.5 Z"/></g>
<g><path style="opacity:0.875" fill="#ba3e41" d="M 12.5,4.5 C 14.604,4.2011 16.604,4.53443 18.5,5.5C 17.1667,6.5 17.1667,7.5 18.5,8.5C 16.5,9.83333 14.5,9.83333 12.5,8.5C 13.3629,7.27359 13.3629,5.94026 12.5,4.5 Z"/></g>
<g><path style="opacity:0.851" fill="#bb3f42" d="M 6.5,11.5 C 7.47283,12.7914 8.47283,12.7914 9.5,11.5C 10.4519,13.0453 10.7852,14.712 10.5,16.5C 8.83333,16.5 7.16667,16.5 5.5,16.5C 5.36596,14.7085 5.69929,13.0418 6.5,11.5 Z"/></g>
</svg>
