<svg width="29" height="28" viewBox="0 0 29 28" fill="none" xmlns="http://www.w3.org/2000/svg">
<path d="M9.68324 27.9908L9.64472 27.4923C9.57489 27.4977 9.50491 27.5 9.43154 27.5C8.18146 27.5 7.10741 26.6888 6.08584 25.281C5.06831 23.8788 4.19027 22.0059 3.30081 20.1046C2.97361 19.4044 2.66098 18.7362 2.35642 18.1266L2.3563 18.1263C1.41579 16.2463 1.08824 14.6129 1.32321 13.1132C1.55802 11.6145 2.36547 10.1801 3.82679 8.7181L3.8268 8.71808L9.47604 3.06586C10.6175 1.92507 12.3518 0.5 14.8297 0.5C16.0655 0.5 17.3869 0.847216 18.8792 1.59443C19.4502 1.88078 20.073 2.17289 20.723 2.47774C20.7661 2.49796 20.8094 2.51824 20.8527 2.53858L20.8532 2.53878C22.8133 3.45608 24.741 4.36064 26.1541 5.41437C27.5693 6.46961 28.3422 7.57909 28.2411 8.88706C28.141 10.1734 27.2784 11.045 25.8898 11.712C24.4921 12.3833 22.6859 12.7843 20.9191 13.1741C20.3669 13.2952 19.8286 13.4138 19.3474 13.5347L19.3469 13.5348C18.3751 13.78 17.7775 14.2821 16.6555 15.4034C16.6554 15.4035 16.6552 15.4037 16.6551 15.4038L16.4066 15.6513L16.406 15.6519L16.3111 15.7467L16.3101 15.7477L16.1569 15.9017C16.1568 15.9018 16.1567 15.9019 16.1566 15.902C15.0377 17.023 14.5346 17.6206 14.2902 18.5913L14.29 18.592C14.18 19.0318 14.0728 19.5167 13.9628 20.0142C13.9514 20.0657 13.94 20.1172 13.9286 20.1689L13.9285 20.1692C13.5387 21.9362 13.1376 23.7424 12.4666 25.1403C11.7999 26.5292 10.9289 27.3918 9.64423 27.4924L9.68324 27.9908ZM9.68324 27.9908C12.7683 27.7493 13.6438 23.7807 14.4163 20.2789L14.4167 20.277M9.68324 27.9908C9.59847 27.9974 9.51544 28 9.43154 28C6.44247 28 4.61603 24.0959 2.84929 20.3194L2.84782 20.3163C2.52007 19.6148 2.21025 18.9527 1.90913 18.35C-0.0328344 14.4682 0.450041 11.3891 3.47315 8.36462L14.4167 20.277M14.4167 20.277C14.4281 20.2254 14.4395 20.1741 14.4508 20.123C14.5612 19.6239 14.6668 19.146 14.7751 18.7134C14.9826 17.8888 15.3912 17.3765 16.5108 16.2549L16.6646 16.1003L16.7594 16.0056L14.4167 20.277ZM27.4425 8.80647L27.4425 8.80663C27.384 9.55518 26.9199 10.1212 26.3297 10.5447C25.7414 10.9669 24.9681 11.2931 24.1488 11.5608C23.0629 11.9155 21.7987 12.1946 20.6631 12.4452C20.1038 12.5687 19.5757 12.6853 19.1155 12.8006C17.9747 13.0886 17.2766 13.6777 16.1027 14.8513L16.1026 14.8515L15.9785 14.9752L15.8545 15.0989L15.8544 15.099M27.4425 8.80647L15.2536 14.9935C15.3035 14.9442 15.3532 14.894 15.4029 14.8439C15.4356 14.811 15.4682 14.7781 15.501 14.7453L15.8544 15.099M27.4425 8.80647C27.5045 8.00826 27.0911 7.30715 26.5154 6.71679C25.9358 6.12253 25.1267 5.57185 24.2363 5.05972C23.092 4.4016 21.733 3.76516 20.458 3.16801C19.7667 2.84423 19.1 2.532 18.5055 2.23413C17.1407 1.55007 15.921 1.21896 14.7891 1.21896C12.9106 1.21896 11.3941 2.13045 9.95845 3.56669L9.95808 3.56707C9.7041 3.82168 9.41405 4.11173 9.08406 4.44173C8.85666 4.66912 8.6103 4.91549 8.3437 5.1823C7.40329 6.12262 6.60974 6.91664 5.94246 7.58442C5.76543 7.76146 5.59721 7.92967 5.43748 8.08939C5.00801 8.51883 4.63997 8.88685 4.32743 9.19984C3.17419 10.3536 2.35475 11.5623 2.08018 12.9776C1.80467 14.3979 2.09277 15.9466 2.995 17.7503L2.99509 17.7505C3.29299 18.3454 3.60549 19.0133 3.92955 19.7058C4.51087 20.9482 5.1294 22.2701 5.76753 23.3931C6.26947 24.2765 6.80741 25.083 7.38572 25.6741C7.95785 26.2589 8.6333 26.6973 9.40694 26.6978M27.4425 8.80647L15.6062 15.348M15.8544 15.099C15.825 15.1285 15.7935 15.1602 15.7612 15.1927C15.71 15.2443 15.6567 15.2981 15.6062 15.348M15.8544 15.099L15.6062 15.348M15.6062 15.348C14.433 16.5219 13.8453 17.2189 13.5584 18.3602C13.4426 18.8219 13.3256 19.3521 13.2016 19.9137C12.951 21.0484 12.6722 22.3113 12.3182 23.3961C12.0506 24.2158 11.7246 24.9895 11.3027 25.5783C10.8796 26.1688 10.314 26.6335 9.56566 26.6924L9.5625 26.6926C9.51073 26.6963 9.45884 26.6981 9.40694 26.6978M9.40694 26.6978C9.40743 26.6978 9.40792 26.6978 9.4084 26.6978V26.1978L9.40559 26.6978C9.40604 26.6978 9.40649 26.6978 9.40694 26.6978ZM9.42295 14.504L9.06922 14.8576L9.42284 15.2112L10.1067 15.8952L10.1068 15.8953C10.2392 16.0275 10.2392 16.2423 10.1068 16.3746C9.97434 16.507 9.75982 16.507 9.62732 16.3746L9.27386 16.7282L9.62731 16.3746L8.94298 15.6907L8.58965 15.3375L8.2362 15.6905L7.5711 16.3548L7.57074 16.3552C7.43886 16.4872 7.22409 16.4875 7.09146 16.3549C6.95898 16.2225 6.9593 16.0084 7.09123 15.8767L7.09146 15.8765L7.75653 15.2118L8.11037 14.8581L7.75654 14.5045L7.09146 13.8397L7.09146 13.8397C6.9591 13.7074 6.95911 13.4931 7.09146 13.3608C7.22396 13.2284 7.43847 13.2284 7.57098 13.3608L8.23608 14.0255L8.58954 14.3788L8.94299 14.0255L9.60809 13.3608C9.7406 13.2284 9.95511 13.2284 10.0876 13.3608L10.0879 13.361C10.2198 13.4927 10.2201 13.7073 10.0876 13.8397L9.42295 14.504ZM15.091 8.36528V9.11228H14.343V8.36528H15.091ZM15.091 5.74479V6.49178H14.343V5.74479H15.091ZM17.7129 5.74479V6.49178H16.965V5.74479H17.7129ZM17.7129 8.36528V9.11228H16.965V8.36528H17.7129Z" fill="#BC3F43" stroke="#BC3F43"/>
</svg>
