<svg width="18" height="18" viewBox="0 0 18 18" fill="none" xmlns="http://www.w3.org/2000/svg">
<path d="M10.5314 9.00029L17.3486 2.18287C17.452 2.08294 17.5346 1.9634 17.5913 1.83123C17.6481 1.69906 17.678 1.5569 17.6793 1.41306C17.6805 1.26922 17.6531 1.12656 17.5986 0.993424C17.5442 0.860287 17.4637 0.73933 17.362 0.637613C17.2603 0.535896 17.1393 0.455455 17.0062 0.400984C16.8731 0.346513 16.7304 0.319103 16.5866 0.320353C16.4427 0.321603 16.3006 0.351489 16.1684 0.408265C16.0362 0.465041 15.9167 0.547572 15.8167 0.651042L8.99932 7.46819L2.18218 0.651042C1.97827 0.451614 1.70394 0.340644 1.41873 0.342214C1.13352 0.343785 0.860428 0.45777 0.658731 0.659431C0.457033 0.861093 0.343001 1.13416 0.34138 1.41937C0.339759 1.70459 0.45068 1.97893 0.650072 2.18287L7.46749 9.00029L0.650072 15.8177C0.547635 15.9179 0.466091 16.0374 0.41016 16.1693C0.35423 16.3012 0.325024 16.4429 0.324235 16.5862C0.323446 16.7295 0.351089 16.8715 0.405563 17.0041C0.460037 17.1366 0.54026 17.257 0.641587 17.3583C0.742914 17.4596 0.863333 17.5398 0.995869 17.5943C1.12841 17.6487 1.27043 17.6763 1.41371 17.6755C1.55699 17.6747 1.69869 17.6455 1.8306 17.5895C1.96251 17.5336 2.08201 17.452 2.18218 17.3495L8.99932 10.5324L15.8167 17.3495C16.0283 17.5611 16.3056 17.667 16.5827 17.667C16.8597 17.667 17.1373 17.5611 17.3486 17.3495C17.5517 17.1464 17.6658 16.8709 17.6658 16.5836C17.6658 16.2964 17.5517 16.0209 17.3486 15.8177L10.5314 9.00029Z" fill="url(#paint0_linear_1760_1795)"/>
<defs>
<linearGradient id="paint0_linear_1760_1795" x1="0.324218" y1="4.02123" x2="16.5491" y2="8.1035" gradientUnits="userSpaceOnUse">
<stop stop-color="white"/>
<stop offset="0.297897" stop-color="white" stop-opacity="0.9"/>
<stop offset="1" stop-color="white"/>
</linearGradient>
</defs>
</svg>
