<svg width="50" height="50" viewBox="0 0 50 50" fill="none" xmlns="http://www.w3.org/2000/svg">
<g clip-path="url(#clip0_573_165)">
<path d="M27.6853 27.5585C25.8853 27.5577 24.1167 28.0304 22.5572 28.9293C22.4683 28.9807 22.3904 29.049 22.3279 29.1305C22.2654 29.212 22.2196 29.305 22.193 29.4042C22.1665 29.5034 22.1597 29.6068 22.1731 29.7087C22.1866 29.8105 22.2199 29.9086 22.2713 29.9975C22.3226 30.0865 22.391 30.1644 22.4725 30.2269C22.554 30.2894 22.647 30.3352 22.7462 30.3617C22.8454 30.3883 22.9488 30.395 23.0506 30.3816C23.1524 30.3682 23.2506 30.3348 23.3395 30.2835C25.2546 29.1762 27.5194 28.8392 29.674 29.3409C31.8285 29.8426 33.7114 31.1453 34.9405 32.9847C36.1695 34.8241 36.6525 37.0623 36.2914 39.2448C35.9304 41.4274 34.7523 43.3907 32.9964 44.7363C31.2404 46.0819 29.0383 46.7089 26.8369 46.49C24.6356 46.271 22.6 45.2226 21.1435 43.5576C19.687 41.8925 18.9187 39.7356 18.9946 37.5247C19.0704 35.3138 19.9848 33.2146 21.552 31.6533C21.6268 31.5814 21.6865 31.4953 21.7276 31.4001C21.7688 31.3049 21.7906 31.2024 21.7917 31.0987C21.7928 30.995 21.7733 30.8921 21.7343 30.796C21.6952 30.6999 21.6374 30.6125 21.5642 30.539C21.491 30.4655 21.404 30.4073 21.3081 30.3678C21.2122 30.3283 21.1093 30.3082 21.0056 30.3089C20.9019 30.3095 20.7993 30.3308 20.7039 30.3715C20.6085 30.4122 20.5222 30.4715 20.4499 30.546C18.767 32.2206 17.7171 34.4272 17.4793 36.7894C17.2415 39.1516 17.8305 41.5232 19.1459 43.4996C20.4612 45.4761 22.4215 46.9351 24.6923 47.6278C26.9632 48.3205 29.404 48.204 31.5985 47.2982C33.7931 46.3924 35.6055 44.7533 36.7266 42.6606C37.8477 40.5678 38.2082 38.1509 37.7465 35.8221C37.2848 33.4933 36.0296 31.3967 34.1948 29.89C32.3601 28.3832 30.0595 27.5596 27.6853 27.5595V27.5585Z" fill="#00236A"/>
<mask id="path-2-outside-1_573_165" maskUnits="userSpaceOnUse" x="-1" y="0.917908" width="52" height="45" fill="black">
<rect fill="white" x="-1" y="0.917908" width="52" height="45"/>
<path d="M28.5344 40.9043H26.5729C26.4213 40.9046 26.271 40.875 26.1308 40.8172C25.9906 40.7594 25.8632 40.6745 25.7558 40.5674C25.6484 40.4603 25.5632 40.3331 25.505 40.1931C25.4468 40.053 25.4168 39.9029 25.4167 39.7512C25.4167 39.544 25.3344 39.3453 25.1878 39.1988C25.0413 39.0523 24.8426 38.97 24.6354 38.97C24.4282 38.97 24.2295 39.0523 24.083 39.1988C23.9365 39.3453 23.8542 39.544 23.8542 39.7512C23.855 40.4712 24.1414 41.1614 24.6505 41.6705C25.1596 42.1796 25.8498 42.466 26.5698 42.4668H26.7708V43.9648C26.7708 44.172 26.8531 44.3707 26.9997 44.5172C27.1462 44.6637 27.3449 44.746 27.5521 44.746C27.7593 44.746 27.958 44.6637 28.1045 44.5172C28.251 44.3707 28.3333 44.172 28.3333 43.9648V42.4668H28.5323C29.2525 42.4668 29.9432 42.1807 30.4525 41.6715C30.9618 41.1622 31.2479 40.4714 31.2479 39.7512C31.2479 39.031 30.9618 38.3403 30.4525 37.831C29.9432 37.3217 29.2525 37.0356 28.5323 37.0356H26.5729C26.273 37.0266 25.9883 36.9011 25.7793 36.6857C25.5703 36.4703 25.4534 36.182 25.4534 35.8819C25.4534 35.5818 25.5703 35.2935 25.7793 35.0782C25.9883 34.8628 26.273 34.7373 26.5729 34.7283H28.5344C28.8401 34.7286 29.1333 34.8502 29.3495 35.0663C29.5656 35.2825 29.6872 35.5757 29.6875 35.8814C29.6875 36.0886 29.7698 36.2873 29.9163 36.4339C30.0628 36.5804 30.2615 36.6627 30.4687 36.6627C30.6759 36.6627 30.8747 36.5804 31.0212 36.4339C31.1677 36.2873 31.25 36.0886 31.25 35.8814C31.2492 35.1615 30.9628 34.4712 30.4537 33.9621C29.9446 33.453 29.2543 33.1666 28.5344 33.1658H28.3333V31.6668C28.3333 31.4596 28.251 31.2609 28.1045 31.1144C27.958 30.9679 27.7593 30.8856 27.5521 30.8856C27.3449 30.8856 27.1462 30.9679 26.9997 31.1144C26.8531 31.2609 26.7708 31.4596 26.7708 31.6668V33.1658H26.5729C25.8618 33.1797 25.1844 33.472 24.6864 33.9799C24.1884 34.4877 23.9094 35.1707 23.9094 35.8819C23.9094 36.5932 24.1884 37.2762 24.6864 37.784C25.1844 38.2919 25.8618 38.5842 26.5729 38.5981H28.5344C28.8402 38.5981 29.1335 38.7196 29.3498 38.9358C29.566 39.1521 29.6875 39.4454 29.6875 39.7512C29.6875 40.057 29.566 40.3503 29.3498 40.5666C29.1335 40.7829 28.8402 40.9043 28.5344 40.9043ZM46.2677 16.2887C46.0704 16.2403 45.8619 16.2707 45.6866 16.3735C45.5113 16.4762 45.383 16.6432 45.3287 16.8391C45.2745 17.0349 45.2988 17.2441 45.3963 17.4224C45.4938 17.6007 45.6569 17.7339 45.851 17.7939C47.9646 18.3814 48.4406 19.0439 48.4406 19.2231C48.4406 19.8752 45.3833 21.4043 39.4562 21.4043C33.5292 21.4043 30.4708 19.8752 30.4708 19.2231C30.4708 18.571 33.5271 17.0418 39.4562 17.0418C40.8585 17.0368 42.2592 17.1353 43.6469 17.3366C43.849 17.3607 44.0524 17.305 44.2142 17.1815C44.3759 17.058 44.4831 16.8763 44.5131 16.675C44.543 16.4737 44.4934 16.2686 44.3746 16.1034C44.2559 15.9381 44.0774 15.8256 43.8771 15.7898C42.4131 15.5779 40.9355 15.4734 39.4562 15.4773C34.376 15.4773 28.9083 16.6491 28.9083 19.221V25.2991C28.9083 27.871 34.376 29.0429 39.4562 29.0429C42.8708 29.0429 46.4542 28.5106 48.4406 27.3814V28.3377C48.4406 28.9898 45.3833 30.5189 39.4562 30.5189C38.776 30.5189 38.1135 30.4981 37.4771 30.4564C37.2703 30.4444 37.0671 30.514 36.9112 30.6504C36.7553 30.7868 36.6592 30.979 36.6437 31.1856C36.6365 31.2883 36.6497 31.3914 36.6825 31.4889C36.7153 31.5865 36.7671 31.6766 36.8349 31.754C36.9027 31.8315 36.9851 31.8948 37.0774 31.9402C37.1698 31.9857 37.2702 32.0124 37.3729 32.0189C38.0448 32.0627 38.7417 32.0856 39.4562 32.0856C42.8708 32.0856 46.4542 31.5533 48.4406 30.4189V31.3752C48.4406 32.0273 45.3833 33.5627 39.4562 33.5627H39.199C39.1552 33.5627 39.1302 33.5627 38.9906 33.5627C38.7857 33.5641 38.589 33.6429 38.4398 33.7834C38.2906 33.9238 38.2001 34.1155 38.1865 34.32C38.1806 34.5272 38.2571 34.7284 38.3992 34.8793C38.5414 35.0302 38.7376 35.1186 38.9448 35.1252C39.049 35.1252 39.1146 35.1252 39.1583 35.1252H39.2625H39.4646C42.8792 35.1252 46.4625 34.5918 48.449 33.4585V34.4148C48.449 35.0668 45.3917 36.596 39.4646 36.596C39.2574 36.596 39.0587 36.6783 38.9122 36.8248C38.7656 36.9713 38.6833 37.1701 38.6833 37.3773C38.6833 37.5845 38.7656 37.7832 38.9122 37.9297C39.0587 38.0762 39.2574 38.1585 39.4646 38.1585C42.8792 38.1585 46.4625 37.6252 48.449 36.4971V37.5293C48.449 38.1814 45.3917 39.7106 39.4646 39.7106H39.1844C38.9806 39.7194 38.7873 39.8032 38.6416 39.9459C38.4958 40.0885 38.408 40.28 38.3948 40.4835C38.3928 40.6906 38.4731 40.8901 38.618 41.0381C38.7629 41.1861 38.9606 41.2706 39.1677 41.2731H39.4646C44.5323 41.2762 50 40.1043 50 37.5325V19.2231C50 18.3585 49.3521 17.1481 46.2677 16.2887ZM39.4531 22.9668C42.8677 22.9668 46.451 22.4346 48.4375 21.3054V22.2616C48.4375 22.9137 45.3802 24.4491 39.4531 24.4491C33.526 24.4491 30.4677 22.9189 30.4677 22.2616V21.3054C32.4542 22.4346 36.0417 22.9668 39.4531 22.9668ZM39.4531 27.4825C33.524 27.4825 30.4677 25.9533 30.4677 25.3012V24.345C32.4542 25.4741 36.0365 26.0116 39.4531 26.0116C42.8698 26.0116 46.451 25.4793 48.4375 24.345V25.3012C48.4375 25.9533 45.3802 27.4825 39.4531 27.4825ZM16.4583 41.9585C16.1833 41.9689 15.9062 41.9752 15.625 41.9752C7.34375 41.9752 1.5625 37.2241 1.5625 30.4221C1.5625 24.8752 5.3125 16.6721 10.9052 13.3023C10.9812 13.2554 11.0448 13.1981 11.1135 13.146H17.5C17.7072 13.146 17.9059 13.0637 18.0524 12.9172C18.1989 12.7707 18.2812 12.572 18.2812 12.3648C18.2812 12.1576 18.1989 11.9588 18.0524 11.8123C17.9059 11.6658 17.7072 11.5835 17.5 11.5835H12.099C12.2055 10.9963 12.0841 10.3905 11.7594 9.88976C9.11875 5.79914 8.60521 3.95851 8.70104 3.48143C8.7111 3.48732 8.72277 3.48987 8.73438 3.48872C9.90755 3.49689 11.0734 3.67442 12.1958 4.0158C13.2818 4.34587 14.4088 4.52121 15.5437 4.53664C16.8268 4.50516 18.1012 4.31696 19.3385 3.97622C20.3191 3.7062 21.326 3.54275 22.3417 3.48872C22.3135 4.07726 21.7302 5.8158 19.7125 9.25955H13.75C13.5428 9.25955 13.3441 9.34186 13.1976 9.48838C13.0511 9.63489 12.9687 9.8336 12.9687 10.0408C12.9687 10.248 13.0511 10.4467 13.1976 10.5932C13.3441 10.7397 13.5428 10.8221 13.75 10.8221H19.0229C18.9844 11.1132 19.0014 11.4091 19.0729 11.6939C19.1566 12.0175 19.3041 12.3212 19.5068 12.587C19.7095 12.8528 19.9632 13.0754 20.2531 13.2418C23.0654 15.0734 25.346 17.613 26.8656 20.6054C26.9132 20.6982 26.9788 20.7805 27.0586 20.8475C27.1385 20.9146 27.2309 20.9649 27.3305 20.9957C27.4301 21.0264 27.5349 21.0369 27.6386 21.0266C27.7423 21.0162 27.8429 20.9852 27.9345 20.9354C28.0261 20.8855 28.1067 20.8178 28.1717 20.7363C28.2367 20.6548 28.2848 20.5612 28.313 20.4608C28.3412 20.3604 28.3491 20.2555 28.3361 20.152C28.3232 20.0486 28.2896 19.9488 28.2375 19.8585C26.5835 16.6188 24.1043 13.8726 21.05 11.8971C20.938 11.8348 20.8396 11.7509 20.7603 11.6502C20.6811 11.5495 20.6227 11.4341 20.5885 11.3106C20.5619 11.2069 20.5566 11.0989 20.5728 10.9931C20.5891 10.8873 20.6267 10.7858 20.6833 10.695C24.6042 4.17205 23.9708 3.05226 23.7042 2.56997C23.5854 2.3645 23.4128 2.1953 23.2051 2.08059C22.9973 1.96588 22.7622 1.90998 22.525 1.91893C21.3273 1.95338 20.1382 2.1321 18.9833 2.45122C17.8629 2.76385 16.7086 2.93875 15.5458 2.97205C14.5459 2.95429 13.5534 2.79543 12.5979 2.50018C11.3445 2.12589 10.0445 1.9309 8.73646 1.92101C8.45703 1.90291 8.17818 1.96422 7.93212 2.09785C7.68605 2.23148 7.4828 2.43199 7.34583 2.67622C7.08333 3.15851 6.38542 4.43976 10.449 10.7335C10.5101 10.8242 10.5517 10.9265 10.5713 11.0341C10.5908 11.1417 10.5878 11.2521 10.5625 11.3585C10.5302 11.4854 10.4726 11.6044 10.3931 11.7084C10.3136 11.8124 10.2139 11.8992 10.1 11.9637C4.0625 15.6064 0 24.4491 0 30.4221C0 38.021 6.57292 43.5418 15.625 43.5418C15.925 43.5418 16.2229 43.5356 16.5187 43.5231C16.6213 43.5191 16.7221 43.4949 16.8154 43.4519C16.9086 43.4089 16.9925 43.3479 17.0622 43.2725C17.1319 43.1971 17.186 43.1088 17.2216 43.0124C17.2571 42.9161 17.2733 42.8137 17.2693 42.7111C17.2652 42.6085 17.241 42.5077 17.198 42.4145C17.1551 42.3212 17.0941 42.2374 17.0187 42.1677C16.9433 42.098 16.8549 42.0438 16.7586 42.0083C16.6623 41.9728 16.5599 41.9566 16.4573 41.9606L16.4583 41.9585Z"/>
</mask>
<path d="M28.5344 40.9043H26.5729C26.4213 40.9046 26.271 40.875 26.1308 40.8172C25.9906 40.7594 25.8632 40.6745 25.7558 40.5674C25.6484 40.4603 25.5632 40.3331 25.505 40.1931C25.4468 40.053 25.4168 39.9029 25.4167 39.7512C25.4167 39.544 25.3344 39.3453 25.1878 39.1988C25.0413 39.0523 24.8426 38.97 24.6354 38.97C24.4282 38.97 24.2295 39.0523 24.083 39.1988C23.9365 39.3453 23.8542 39.544 23.8542 39.7512C23.855 40.4712 24.1414 41.1614 24.6505 41.6705C25.1596 42.1796 25.8498 42.466 26.5698 42.4668H26.7708V43.9648C26.7708 44.172 26.8531 44.3707 26.9997 44.5172C27.1462 44.6637 27.3449 44.746 27.5521 44.746C27.7593 44.746 27.958 44.6637 28.1045 44.5172C28.251 44.3707 28.3333 44.172 28.3333 43.9648V42.4668H28.5323C29.2525 42.4668 29.9432 42.1807 30.4525 41.6715C30.9618 41.1622 31.2479 40.4714 31.2479 39.7512C31.2479 39.031 30.9618 38.3403 30.4525 37.831C29.9432 37.3217 29.2525 37.0356 28.5323 37.0356H26.5729C26.273 37.0266 25.9883 36.9011 25.7793 36.6857C25.5703 36.4703 25.4534 36.182 25.4534 35.8819C25.4534 35.5818 25.5703 35.2935 25.7793 35.0782C25.9883 34.8628 26.273 34.7373 26.5729 34.7283H28.5344C28.8401 34.7286 29.1333 34.8502 29.3495 35.0663C29.5656 35.2825 29.6872 35.5757 29.6875 35.8814C29.6875 36.0886 29.7698 36.2873 29.9163 36.4339C30.0628 36.5804 30.2615 36.6627 30.4687 36.6627C30.6759 36.6627 30.8747 36.5804 31.0212 36.4339C31.1677 36.2873 31.25 36.0886 31.25 35.8814C31.2492 35.1615 30.9628 34.4712 30.4537 33.9621C29.9446 33.453 29.2543 33.1666 28.5344 33.1658H28.3333V31.6668C28.3333 31.4596 28.251 31.2609 28.1045 31.1144C27.958 30.9679 27.7593 30.8856 27.5521 30.8856C27.3449 30.8856 27.1462 30.9679 26.9997 31.1144C26.8531 31.2609 26.7708 31.4596 26.7708 31.6668V33.1658H26.5729C25.8618 33.1797 25.1844 33.472 24.6864 33.9799C24.1884 34.4877 23.9094 35.1707 23.9094 35.8819C23.9094 36.5932 24.1884 37.2762 24.6864 37.784C25.1844 38.2919 25.8618 38.5842 26.5729 38.5981H28.5344C28.8402 38.5981 29.1335 38.7196 29.3498 38.9358C29.566 39.1521 29.6875 39.4454 29.6875 39.7512C29.6875 40.057 29.566 40.3503 29.3498 40.5666C29.1335 40.7829 28.8402 40.9043 28.5344 40.9043ZM46.2677 16.2887C46.0704 16.2403 45.8619 16.2707 45.6866 16.3735C45.5113 16.4762 45.383 16.6432 45.3287 16.8391C45.2745 17.0349 45.2988 17.2441 45.3963 17.4224C45.4938 17.6007 45.6569 17.7339 45.851 17.7939C47.9646 18.3814 48.4406 19.0439 48.4406 19.2231C48.4406 19.8752 45.3833 21.4043 39.4562 21.4043C33.5292 21.4043 30.4708 19.8752 30.4708 19.2231C30.4708 18.571 33.5271 17.0418 39.4562 17.0418C40.8585 17.0368 42.2592 17.1353 43.6469 17.3366C43.849 17.3607 44.0524 17.305 44.2142 17.1815C44.3759 17.058 44.4831 16.8763 44.5131 16.675C44.543 16.4737 44.4934 16.2686 44.3746 16.1034C44.2559 15.9381 44.0774 15.8256 43.8771 15.7898C42.4131 15.5779 40.9355 15.4734 39.4562 15.4773C34.376 15.4773 28.9083 16.6491 28.9083 19.221V25.2991C28.9083 27.871 34.376 29.0429 39.4562 29.0429C42.8708 29.0429 46.4542 28.5106 48.4406 27.3814V28.3377C48.4406 28.9898 45.3833 30.5189 39.4562 30.5189C38.776 30.5189 38.1135 30.4981 37.4771 30.4564C37.2703 30.4444 37.0671 30.514 36.9112 30.6504C36.7553 30.7868 36.6592 30.979 36.6437 31.1856C36.6365 31.2883 36.6497 31.3914 36.6825 31.4889C36.7153 31.5865 36.7671 31.6766 36.8349 31.754C36.9027 31.8315 36.9851 31.8948 37.0774 31.9402C37.1698 31.9857 37.2702 32.0124 37.3729 32.0189C38.0448 32.0627 38.7417 32.0856 39.4562 32.0856C42.8708 32.0856 46.4542 31.5533 48.4406 30.4189V31.3752C48.4406 32.0273 45.3833 33.5627 39.4562 33.5627H39.199C39.1552 33.5627 39.1302 33.5627 38.9906 33.5627C38.7857 33.5641 38.589 33.6429 38.4398 33.7834C38.2906 33.9238 38.2001 34.1155 38.1865 34.32C38.1806 34.5272 38.2571 34.7284 38.3992 34.8793C38.5414 35.0302 38.7376 35.1186 38.9448 35.1252C39.049 35.1252 39.1146 35.1252 39.1583 35.1252H39.2625H39.4646C42.8792 35.1252 46.4625 34.5918 48.449 33.4585V34.4148C48.449 35.0668 45.3917 36.596 39.4646 36.596C39.2574 36.596 39.0587 36.6783 38.9122 36.8248C38.7656 36.9713 38.6833 37.1701 38.6833 37.3773C38.6833 37.5845 38.7656 37.7832 38.9122 37.9297C39.0587 38.0762 39.2574 38.1585 39.4646 38.1585C42.8792 38.1585 46.4625 37.6252 48.449 36.4971V37.5293C48.449 38.1814 45.3917 39.7106 39.4646 39.7106H39.1844C38.9806 39.7194 38.7873 39.8032 38.6416 39.9459C38.4958 40.0885 38.408 40.28 38.3948 40.4835C38.3928 40.6906 38.4731 40.8901 38.618 41.0381C38.7629 41.1861 38.9606 41.2706 39.1677 41.2731H39.4646C44.5323 41.2762 50 40.1043 50 37.5325V19.2231C50 18.3585 49.3521 17.1481 46.2677 16.2887ZM39.4531 22.9668C42.8677 22.9668 46.451 22.4346 48.4375 21.3054V22.2616C48.4375 22.9137 45.3802 24.4491 39.4531 24.4491C33.526 24.4491 30.4677 22.9189 30.4677 22.2616V21.3054C32.4542 22.4346 36.0417 22.9668 39.4531 22.9668ZM39.4531 27.4825C33.524 27.4825 30.4677 25.9533 30.4677 25.3012V24.345C32.4542 25.4741 36.0365 26.0116 39.4531 26.0116C42.8698 26.0116 46.451 25.4793 48.4375 24.345V25.3012C48.4375 25.9533 45.3802 27.4825 39.4531 27.4825ZM16.4583 41.9585C16.1833 41.9689 15.9062 41.9752 15.625 41.9752C7.34375 41.9752 1.5625 37.2241 1.5625 30.4221C1.5625 24.8752 5.3125 16.6721 10.9052 13.3023C10.9812 13.2554 11.0448 13.1981 11.1135 13.146H17.5C17.7072 13.146 17.9059 13.0637 18.0524 12.9172C18.1989 12.7707 18.2812 12.572 18.2812 12.3648C18.2812 12.1576 18.1989 11.9588 18.0524 11.8123C17.9059 11.6658 17.7072 11.5835 17.5 11.5835H12.099C12.2055 10.9963 12.0841 10.3905 11.7594 9.88976C9.11875 5.79914 8.60521 3.95851 8.70104 3.48143C8.7111 3.48732 8.72277 3.48987 8.73438 3.48872C9.90755 3.49689 11.0734 3.67442 12.1958 4.0158C13.2818 4.34587 14.4088 4.52121 15.5437 4.53664C16.8268 4.50516 18.1012 4.31696 19.3385 3.97622C20.3191 3.7062 21.326 3.54275 22.3417 3.48872C22.3135 4.07726 21.7302 5.8158 19.7125 9.25955H13.75C13.5428 9.25955 13.3441 9.34186 13.1976 9.48838C13.0511 9.63489 12.9687 9.8336 12.9687 10.0408C12.9687 10.248 13.0511 10.4467 13.1976 10.5932C13.3441 10.7397 13.5428 10.8221 13.75 10.8221H19.0229C18.9844 11.1132 19.0014 11.4091 19.0729 11.6939C19.1566 12.0175 19.3041 12.3212 19.5068 12.587C19.7095 12.8528 19.9632 13.0754 20.2531 13.2418C23.0654 15.0734 25.346 17.613 26.8656 20.6054C26.9132 20.6982 26.9788 20.7805 27.0586 20.8475C27.1385 20.9146 27.2309 20.9649 27.3305 20.9957C27.4301 21.0264 27.5349 21.0369 27.6386 21.0266C27.7423 21.0162 27.8429 20.9852 27.9345 20.9354C28.0261 20.8855 28.1067 20.8178 28.1717 20.7363C28.2367 20.6548 28.2848 20.5612 28.313 20.4608C28.3412 20.3604 28.3491 20.2555 28.3361 20.152C28.3232 20.0486 28.2896 19.9488 28.2375 19.8585C26.5835 16.6188 24.1043 13.8726 21.05 11.8971C20.938 11.8348 20.8396 11.7509 20.7603 11.6502C20.6811 11.5495 20.6227 11.4341 20.5885 11.3106C20.5619 11.2069 20.5566 11.0989 20.5728 10.9931C20.5891 10.8873 20.6267 10.7858 20.6833 10.695C24.6042 4.17205 23.9708 3.05226 23.7042 2.56997C23.5854 2.3645 23.4128 2.1953 23.2051 2.08059C22.9973 1.96588 22.7622 1.90998 22.525 1.91893C21.3273 1.95338 20.1382 2.1321 18.9833 2.45122C17.8629 2.76385 16.7086 2.93875 15.5458 2.97205C14.5459 2.95429 13.5534 2.79543 12.5979 2.50018C11.3445 2.12589 10.0445 1.9309 8.73646 1.92101C8.45703 1.90291 8.17818 1.96422 7.93212 2.09785C7.68605 2.23148 7.4828 2.43199 7.34583 2.67622C7.08333 3.15851 6.38542 4.43976 10.449 10.7335C10.5101 10.8242 10.5517 10.9265 10.5713 11.0341C10.5908 11.1417 10.5878 11.2521 10.5625 11.3585C10.5302 11.4854 10.4726 11.6044 10.3931 11.7084C10.3136 11.8124 10.2139 11.8992 10.1 11.9637C4.0625 15.6064 0 24.4491 0 30.4221C0 38.021 6.57292 43.5418 15.625 43.5418C15.925 43.5418 16.2229 43.5356 16.5187 43.5231C16.6213 43.5191 16.7221 43.4949 16.8154 43.4519C16.9086 43.4089 16.9925 43.3479 17.0622 43.2725C17.1319 43.1971 17.186 43.1088 17.2216 43.0124C17.2571 42.9161 17.2733 42.8137 17.2693 42.7111C17.2652 42.6085 17.241 42.5077 17.198 42.4145C17.1551 42.3212 17.0941 42.2374 17.0187 42.1677C16.9433 42.098 16.8549 42.0438 16.7586 42.0083C16.6623 41.9728 16.5599 41.9566 16.4573 41.9606L16.4583 41.9585Z" fill="#00236A"/>
<path d="M28.5344 40.9043H26.5729C26.4213 40.9046 26.271 40.875 26.1308 40.8172C25.9906 40.7594 25.8632 40.6745 25.7558 40.5674C25.6484 40.4603 25.5632 40.3331 25.505 40.1931C25.4468 40.053 25.4168 39.9029 25.4167 39.7512C25.4167 39.544 25.3344 39.3453 25.1878 39.1988C25.0413 39.0523 24.8426 38.97 24.6354 38.97C24.4282 38.97 24.2295 39.0523 24.083 39.1988C23.9365 39.3453 23.8542 39.544 23.8542 39.7512C23.855 40.4712 24.1414 41.1614 24.6505 41.6705C25.1596 42.1796 25.8498 42.466 26.5698 42.4668H26.7708V43.9648C26.7708 44.172 26.8531 44.3707 26.9997 44.5172C27.1462 44.6637 27.3449 44.746 27.5521 44.746C27.7593 44.746 27.958 44.6637 28.1045 44.5172C28.251 44.3707 28.3333 44.172 28.3333 43.9648V42.4668H28.5323C29.2525 42.4668 29.9432 42.1807 30.4525 41.6715C30.9618 41.1622 31.2479 40.4714 31.2479 39.7512C31.2479 39.031 30.9618 38.3403 30.4525 37.831C29.9432 37.3217 29.2525 37.0356 28.5323 37.0356H26.5729C26.273 37.0266 25.9883 36.9011 25.7793 36.6857C25.5703 36.4703 25.4534 36.182 25.4534 35.8819C25.4534 35.5818 25.5703 35.2935 25.7793 35.0782C25.9883 34.8628 26.273 34.7373 26.5729 34.7283H28.5344C28.8401 34.7286 29.1333 34.8502 29.3495 35.0663C29.5656 35.2825 29.6872 35.5757 29.6875 35.8814C29.6875 36.0886 29.7698 36.2873 29.9163 36.4339C30.0628 36.5804 30.2615 36.6627 30.4687 36.6627C30.6759 36.6627 30.8747 36.5804 31.0212 36.4339C31.1677 36.2873 31.25 36.0886 31.25 35.8814C31.2492 35.1615 30.9628 34.4712 30.4537 33.9621C29.9446 33.453 29.2543 33.1666 28.5344 33.1658H28.3333V31.6668C28.3333 31.4596 28.251 31.2609 28.1045 31.1144C27.958 30.9679 27.7593 30.8856 27.5521 30.8856C27.3449 30.8856 27.1462 30.9679 26.9997 31.1144C26.8531 31.2609 26.7708 31.4596 26.7708 31.6668V33.1658H26.5729C25.8618 33.1797 25.1844 33.472 24.6864 33.9799C24.1884 34.4877 23.9094 35.1707 23.9094 35.8819C23.9094 36.5932 24.1884 37.2762 24.6864 37.784C25.1844 38.2919 25.8618 38.5842 26.5729 38.5981H28.5344C28.8402 38.5981 29.1335 38.7196 29.3498 38.9358C29.566 39.1521 29.6875 39.4454 29.6875 39.7512C29.6875 40.057 29.566 40.3503 29.3498 40.5666C29.1335 40.7829 28.8402 40.9043 28.5344 40.9043ZM46.2677 16.2887C46.0704 16.2403 45.8619 16.2707 45.6866 16.3735C45.5113 16.4762 45.383 16.6432 45.3287 16.8391C45.2745 17.0349 45.2988 17.2441 45.3963 17.4224C45.4938 17.6007 45.6569 17.7339 45.851 17.7939C47.9646 18.3814 48.4406 19.0439 48.4406 19.2231C48.4406 19.8752 45.3833 21.4043 39.4562 21.4043C33.5292 21.4043 30.4708 19.8752 30.4708 19.2231C30.4708 18.571 33.5271 17.0418 39.4562 17.0418C40.8585 17.0368 42.2592 17.1353 43.6469 17.3366C43.849 17.3607 44.0524 17.305 44.2142 17.1815C44.3759 17.058 44.4831 16.8763 44.5131 16.675C44.543 16.4737 44.4934 16.2686 44.3746 16.1034C44.2559 15.9381 44.0774 15.8256 43.8771 15.7898C42.4131 15.5779 40.9355 15.4734 39.4562 15.4773C34.376 15.4773 28.9083 16.6491 28.9083 19.221V25.2991C28.9083 27.871 34.376 29.0429 39.4562 29.0429C42.8708 29.0429 46.4542 28.5106 48.4406 27.3814V28.3377C48.4406 28.9898 45.3833 30.5189 39.4562 30.5189C38.776 30.5189 38.1135 30.4981 37.4771 30.4564C37.2703 30.4444 37.0671 30.514 36.9112 30.6504C36.7553 30.7868 36.6592 30.979 36.6437 31.1856C36.6365 31.2883 36.6497 31.3914 36.6825 31.4889C36.7153 31.5865 36.7671 31.6766 36.8349 31.754C36.9027 31.8315 36.9851 31.8948 37.0774 31.9402C37.1698 31.9857 37.2702 32.0124 37.3729 32.0189C38.0448 32.0627 38.7417 32.0856 39.4562 32.0856C42.8708 32.0856 46.4542 31.5533 48.4406 30.4189V31.3752C48.4406 32.0273 45.3833 33.5627 39.4562 33.5627H39.199C39.1552 33.5627 39.1302 33.5627 38.9906 33.5627C38.7857 33.5641 38.589 33.6429 38.4398 33.7834C38.2906 33.9238 38.2001 34.1155 38.1865 34.32C38.1806 34.5272 38.2571 34.7284 38.3992 34.8793C38.5414 35.0302 38.7376 35.1186 38.9448 35.1252C39.049 35.1252 39.1146 35.1252 39.1583 35.1252H39.2625H39.4646C42.8792 35.1252 46.4625 34.5918 48.449 33.4585V34.4148C48.449 35.0668 45.3917 36.596 39.4646 36.596C39.2574 36.596 39.0587 36.6783 38.9122 36.8248C38.7656 36.9713 38.6833 37.1701 38.6833 37.3773C38.6833 37.5845 38.7656 37.7832 38.9122 37.9297C39.0587 38.0762 39.2574 38.1585 39.4646 38.1585C42.8792 38.1585 46.4625 37.6252 48.449 36.4971V37.5293C48.449 38.1814 45.3917 39.7106 39.4646 39.7106H39.1844C38.9806 39.7194 38.7873 39.8032 38.6416 39.9459C38.4958 40.0885 38.408 40.28 38.3948 40.4835C38.3928 40.6906 38.4731 40.8901 38.618 41.0381C38.7629 41.1861 38.9606 41.2706 39.1677 41.2731H39.4646C44.5323 41.2762 50 40.1043 50 37.5325V19.2231C50 18.3585 49.3521 17.1481 46.2677 16.2887ZM39.4531 22.9668C42.8677 22.9668 46.451 22.4346 48.4375 21.3054V22.2616C48.4375 22.9137 45.3802 24.4491 39.4531 24.4491C33.526 24.4491 30.4677 22.9189 30.4677 22.2616V21.3054C32.4542 22.4346 36.0417 22.9668 39.4531 22.9668ZM39.4531 27.4825C33.524 27.4825 30.4677 25.9533 30.4677 25.3012V24.345C32.4542 25.4741 36.0365 26.0116 39.4531 26.0116C42.8698 26.0116 46.451 25.4793 48.4375 24.345V25.3012C48.4375 25.9533 45.3802 27.4825 39.4531 27.4825ZM16.4583 41.9585C16.1833 41.9689 15.9062 41.9752 15.625 41.9752C7.34375 41.9752 1.5625 37.2241 1.5625 30.4221C1.5625 24.8752 5.3125 16.6721 10.9052 13.3023C10.9812 13.2554 11.0448 13.1981 11.1135 13.146H17.5C17.7072 13.146 17.9059 13.0637 18.0524 12.9172C18.1989 12.7707 18.2812 12.572 18.2812 12.3648C18.2812 12.1576 18.1989 11.9588 18.0524 11.8123C17.9059 11.6658 17.7072 11.5835 17.5 11.5835H12.099C12.2055 10.9963 12.0841 10.3905 11.7594 9.88976C9.11875 5.79914 8.60521 3.95851 8.70104 3.48143C8.7111 3.48732 8.72277 3.48987 8.73438 3.48872C9.90755 3.49689 11.0734 3.67442 12.1958 4.0158C13.2818 4.34587 14.4088 4.52121 15.5437 4.53664C16.8268 4.50516 18.1012 4.31696 19.3385 3.97622C20.3191 3.7062 21.326 3.54275 22.3417 3.48872C22.3135 4.07726 21.7302 5.8158 19.7125 9.25955H13.75C13.5428 9.25955 13.3441 9.34186 13.1976 9.48838C13.0511 9.63489 12.9687 9.8336 12.9687 10.0408C12.9687 10.248 13.0511 10.4467 13.1976 10.5932C13.3441 10.7397 13.5428 10.8221 13.75 10.8221H19.0229C18.9844 11.1132 19.0014 11.4091 19.0729 11.6939C19.1566 12.0175 19.3041 12.3212 19.5068 12.587C19.7095 12.8528 19.9632 13.0754 20.2531 13.2418C23.0654 15.0734 25.346 17.613 26.8656 20.6054C26.9132 20.6982 26.9788 20.7805 27.0586 20.8475C27.1385 20.9146 27.2309 20.9649 27.3305 20.9957C27.4301 21.0264 27.5349 21.0369 27.6386 21.0266C27.7423 21.0162 27.8429 20.9852 27.9345 20.9354C28.0261 20.8855 28.1067 20.8178 28.1717 20.7363C28.2367 20.6548 28.2848 20.5612 28.313 20.4608C28.3412 20.3604 28.3491 20.2555 28.3361 20.152C28.3232 20.0486 28.2896 19.9488 28.2375 19.8585C26.5835 16.6188 24.1043 13.8726 21.05 11.8971C20.938 11.8348 20.8396 11.7509 20.7603 11.6502C20.6811 11.5495 20.6227 11.4341 20.5885 11.3106C20.5619 11.2069 20.5566 11.0989 20.5728 10.9931C20.5891 10.8873 20.6267 10.7858 20.6833 10.695C24.6042 4.17205 23.9708 3.05226 23.7042 2.56997C23.5854 2.3645 23.4128 2.1953 23.2051 2.08059C22.9973 1.96588 22.7622 1.90998 22.525 1.91893C21.3273 1.95338 20.1382 2.1321 18.9833 2.45122C17.8629 2.76385 16.7086 2.93875 15.5458 2.97205C14.5459 2.95429 13.5534 2.79543 12.5979 2.50018C11.3445 2.12589 10.0445 1.9309 8.73646 1.92101C8.45703 1.90291 8.17818 1.96422 7.93212 2.09785C7.68605 2.23148 7.4828 2.43199 7.34583 2.67622C7.08333 3.15851 6.38542 4.43976 10.449 10.7335C10.5101 10.8242 10.5517 10.9265 10.5713 11.0341C10.5908 11.1417 10.5878 11.2521 10.5625 11.3585C10.5302 11.4854 10.4726 11.6044 10.3931 11.7084C10.3136 11.8124 10.2139 11.8992 10.1 11.9637C4.0625 15.6064 0 24.4491 0 30.4221C0 38.021 6.57292 43.5418 15.625 43.5418C15.925 43.5418 16.2229 43.5356 16.5187 43.5231C16.6213 43.5191 16.7221 43.4949 16.8154 43.4519C16.9086 43.4089 16.9925 43.3479 17.0622 43.2725C17.1319 43.1971 17.186 43.1088 17.2216 43.0124C17.2571 42.9161 17.2733 42.8137 17.2693 42.7111C17.2652 42.6085 17.241 42.5077 17.198 42.4145C17.1551 42.3212 17.0941 42.2374 17.0187 42.1677C16.9433 42.098 16.8549 42.0438 16.7586 42.0083C16.6623 41.9728 16.5599 41.9566 16.4573 41.9606L16.4583 41.9585Z" stroke="#00236A" stroke-width="0.6" mask="url(#path-2-outside-1_573_165)"/>
</g>
<defs>
<clipPath id="clip0_573_165">
<rect width="50" height="50" fill="white"/>
</clipPath>
</defs>
</svg>
