<svg width="25" height="26" viewBox="0 0 25 26" fill="none" xmlns="http://www.w3.org/2000/svg">
<path fill-rule="evenodd" clip-rule="evenodd" d="M12.5476 17.1658C11.9894 17.1658 11.4367 17.054 10.921 16.837C10.4053 16.6199 9.93678 16.3018 9.54209 15.9008C9.1474 15.4997 8.83432 15.0236 8.62072 14.4996C8.40712 13.9756 8.29718 13.4139 8.29718 12.8468C8.29718 12.2796 8.40712 11.718 8.62072 11.1939C8.83432 10.6699 9.1474 10.1938 9.54209 9.79276C9.93678 9.39171 10.4053 9.07357 10.921 8.85652C11.4367 8.63947 11.9894 8.52776 12.5476 8.52776C13.6749 8.52776 14.756 8.98279 15.5531 9.79276C16.3502 10.6027 16.798 11.7013 16.798 12.8468C16.798 13.9922 16.3502 15.0908 15.5531 15.9008C14.756 16.7107 13.6749 17.1658 12.5476 17.1658ZM12.5476 6.19351C10.8111 6.19351 9.14565 6.89448 7.91774 8.1422C6.68983 9.38993 6 11.0822 6 12.8468C6 14.6113 6.68983 16.3036 7.91774 17.5513C9.14565 18.799 10.8111 19.5 12.5476 19.5C14.2841 19.5 15.9495 18.799 17.1774 17.5513C18.4053 16.3036 19.0952 14.6113 19.0952 12.8468C19.0952 11.0822 18.4053 9.38993 17.1774 8.1422C15.9495 6.89448 14.2841 6.19351 12.5476 6.19351ZM21 6.0727C21 6.48981 20.8369 6.88983 20.5467 7.18477C20.2564 7.47971 19.8628 7.6454 19.4523 7.6454C19.0418 7.6454 18.6481 7.47971 18.3579 7.18477C18.0676 6.88983 17.9045 6.48981 17.9045 6.0727C17.9045 5.6556 18.0676 5.25557 18.3579 4.96063C18.6481 4.6657 19.0418 4.5 19.4523 4.5C19.8628 4.5 20.2564 4.6657 20.5467 4.96063C20.8369 5.25557 21 5.6556 21 6.0727Z" fill="#00236A"/>
<path fill-rule="evenodd" clip-rule="evenodd" d="M12.5 0.5C9.105 0.5 8.68 0.514167 7.34667 0.575C6.01583 0.635833 5.10667 0.8475 4.31167 1.15667C3.47833 1.47 2.7225 1.96167 2.0975 2.59833C1.46185 3.22261 0.969882 3.97791 0.655833 4.81167C0.348333 5.60667 0.135833 6.51667 0.075 7.8475C0.015 9.18 0 9.60417 0 13C0 16.3958 0.0141667 16.82 0.075 18.1533C0.135833 19.4842 0.3475 20.3933 0.656667 21.1883C0.97 22.0217 1.46167 22.7775 2.09833 23.4025C2.72263 24.0381 3.47792 24.5301 4.31167 24.8442C5.10667 25.1525 6.01583 25.3642 7.34667 25.425C8.68 25.4858 9.105 25.5 12.5 25.5C15.895 25.5 16.32 25.4858 17.6533 25.425C18.9842 25.3642 19.8933 25.1525 20.6883 24.8433C21.5217 24.53 22.2775 24.0383 22.9025 23.4017C23.5381 22.7774 24.0301 22.0221 24.3442 21.1883C24.6525 20.3933 24.8642 19.4842 24.925 18.1533C24.9858 16.82 25 16.395 25 13C25 9.605 24.9858 9.18 24.925 7.84667C24.8642 6.51583 24.6525 5.60667 24.3433 4.81167C24.0295 3.97755 23.5375 3.22193 22.9017 2.5975C22.2774 1.96185 21.5221 1.46988 20.6883 1.15583C19.8933 0.848333 18.9833 0.635833 17.6525 0.575C16.32 0.515 15.8958 0.5 12.5 0.5ZM12.5 2.7525C15.8375 2.7525 16.2333 2.765 17.5517 2.825C18.77 2.88083 19.4317 3.08333 19.8725 3.25583C20.4558 3.48167 20.8725 3.75333 21.31 4.19C21.7475 4.6275 22.0183 5.04417 22.2442 5.6275C22.4158 6.06833 22.6192 6.73 22.675 7.94833C22.735 9.26667 22.7475 9.6625 22.7475 13C22.7475 16.3375 22.735 16.7333 22.675 18.0517C22.6192 19.27 22.4167 19.9317 22.2442 20.3725C22.0441 20.9155 21.7249 21.4067 21.31 21.81C20.9067 22.225 20.4155 22.5442 19.8725 22.7442C19.4317 22.9158 18.77 23.1192 17.5517 23.175C16.2333 23.235 15.8383 23.2475 12.5 23.2475C9.16167 23.2475 8.76667 23.235 7.44833 23.175C6.23 23.1192 5.56833 22.9167 5.1275 22.7442C4.58455 22.5441 4.09334 22.2249 3.69 21.81C3.27515 21.4066 2.95594 20.9154 2.75583 20.3725C2.58417 19.9317 2.38083 19.27 2.325 18.0517C2.265 16.7333 2.2525 16.3375 2.2525 13C2.2525 9.6625 2.265 9.26667 2.325 7.94833C2.38083 6.73 2.58333 6.06833 2.75583 5.6275C2.98167 5.04417 3.25333 4.6275 3.69 4.19C4.09328 3.77504 4.58451 3.45581 5.1275 3.25583C5.56833 3.08417 6.23 2.88083 7.44833 2.825C8.76667 2.765 9.1625 2.7525 12.5 2.7525V2.7525Z" fill="#00236A"/>
</svg>
