<svg width="26" height="25" viewBox="0 0 26 25" fill="none" xmlns="http://www.w3.org/2000/svg">
<path fill-rule="evenodd" clip-rule="evenodd" d="M13 0C9.605 0 9.18 0.0141667 7.84667 0.075C6.51583 0.135833 5.60667 0.3475 4.81167 0.656667C3.97833 0.97 3.2225 1.46167 2.5975 2.09833C1.96185 2.72261 1.46988 3.47791 1.15583 4.31167C0.848333 5.10667 0.635833 6.01667 0.575 7.3475C0.515 8.68 0.5 9.10417 0.5 12.5C0.5 15.8958 0.514167 16.32 0.575 17.6533C0.635833 18.9842 0.8475 19.8933 1.15667 20.6883C1.47 21.5217 1.96167 22.2775 2.59833 22.9025C3.22263 23.5381 3.97792 24.0301 4.81167 24.3442C5.60667 24.6525 6.51583 24.8642 7.84667 24.925C9.18 24.9858 9.605 25 13 25C16.395 25 16.82 24.9858 18.1533 24.925C19.4842 24.8642 20.3933 24.6525 21.1883 24.3433C22.0217 24.03 22.7775 23.5383 23.4025 22.9017C24.0381 22.2774 24.5301 21.5221 24.8442 20.6883C25.1525 19.8933 25.3642 18.9842 25.425 17.6533C25.4858 16.32 25.5 15.895 25.5 12.5C25.5 9.105 25.4858 8.68 25.425 7.34667C25.3642 6.01583 25.1525 5.10667 24.8433 4.31167C24.5295 3.47755 24.0375 2.72193 23.4017 2.0975C22.7774 1.46185 22.0221 0.969882 21.1883 0.655833C20.3933 0.348333 19.4833 0.135833 18.1525 0.075C16.82 0.015 16.3958 0 13 0ZM13 2.2525C16.3375 2.2525 16.7333 2.265 18.0517 2.325C19.27 2.38083 19.9317 2.58333 20.3725 2.75583C20.9558 2.98167 21.3725 3.25333 21.81 3.69C22.2475 4.1275 22.5183 4.54417 22.7442 5.1275C22.9158 5.56833 23.1192 6.23 23.175 7.44833C23.235 8.76667 23.2475 9.1625 23.2475 12.5C23.2475 15.8375 23.235 16.2333 23.175 17.5517C23.1192 18.77 22.9167 19.4317 22.7442 19.8725C22.5441 20.4155 22.2249 20.9067 21.81 21.31C21.4067 21.725 20.9155 22.0442 20.3725 22.2442C19.9317 22.4158 19.27 22.6192 18.0517 22.675C16.7333 22.735 16.3383 22.7475 13 22.7475C9.66167 22.7475 9.26667 22.735 7.94833 22.675C6.73 22.6192 6.06833 22.4167 5.6275 22.2442C5.08455 22.0441 4.59334 21.7249 4.19 21.31C3.77515 20.9066 3.45594 20.4154 3.25583 19.8725C3.08417 19.4317 2.88083 18.77 2.825 17.5517C2.765 16.2333 2.7525 15.8375 2.7525 12.5C2.7525 9.1625 2.765 8.76667 2.825 7.44833C2.88083 6.23 3.08333 5.56833 3.25583 5.1275C3.48167 4.54417 3.75333 4.1275 4.19 3.69C4.59328 3.27504 5.08451 2.95581 5.6275 2.75583C6.06833 2.58417 6.73 2.38083 7.94833 2.325C9.26667 2.265 9.6625 2.2525 13 2.2525Z" fill="white"/>
<path fill-rule="evenodd" clip-rule="evenodd" d="M13.0476 16.6658C12.4894 16.6658 11.9367 16.554 11.421 16.337C10.9053 16.1199 10.4368 15.8018 10.0421 15.4008C9.6474 14.9997 9.33432 14.5236 9.12072 13.9996C8.90712 13.4756 8.79718 12.9139 8.79718 12.3468C8.79718 11.7796 8.90712 11.218 9.12072 10.6939C9.33432 10.1699 9.6474 9.69382 10.0421 9.29276C10.4368 8.89171 10.9053 8.57357 11.421 8.35652C11.9367 8.13947 12.4894 8.02776 13.0476 8.02776C14.1749 8.02776 15.256 8.48279 16.0531 9.29276C16.8502 10.1027 17.298 11.2013 17.298 12.3468C17.298 13.4922 16.8502 14.5908 16.0531 15.4008C15.256 16.2107 14.1749 16.6658 13.0476 16.6658ZM13.0476 5.69351C11.3111 5.69351 9.64565 6.39448 8.41774 7.6422C7.18983 8.88993 6.5 10.5822 6.5 12.3468C6.5 14.1113 7.18983 15.8036 8.41774 17.0513C9.64565 18.299 11.3111 19 13.0476 19C14.7841 19 16.4495 18.299 17.6774 17.0513C18.9053 15.8036 19.5952 14.1113 19.5952 12.3468C19.5952 10.5822 18.9053 8.88993 17.6774 7.6422C16.4495 6.39448 14.7841 5.69351 13.0476 5.69351ZM21.5 5.5727C21.5 5.98981 21.3369 6.38983 21.0467 6.68477C20.7564 6.97971 20.3628 7.1454 19.9523 7.1454C19.5418 7.1454 19.1481 6.97971 18.8579 6.68477C18.5676 6.38983 18.4045 5.98981 18.4045 5.5727C18.4045 5.1556 18.5676 4.75557 18.8579 4.46063C19.1481 4.1657 19.5418 4 19.9523 4C20.3628 4 20.7564 4.1657 21.0467 4.46063C21.3369 4.75557 21.5 5.1556 21.5 5.5727Z" fill="white"/>
</svg>
