<svg width="26" height="20" viewBox="0 0 26 20" fill="none" xmlns="http://www.w3.org/2000/svg">
<path d="M22.9406 4.97895C22.9558 5.19593 22.9558 5.41292 22.9558 5.63191C22.9558 12.3045 17.7964 20 8.36208 20V19.996C5.57516 20 2.84613 19.2141 0.5 17.7321C0.905241 17.7801 1.31251 17.8041 1.7208 17.8051C4.03037 17.8071 6.27392 17.0442 8.0909 15.6393C5.8961 15.5983 3.97146 14.1894 3.29911 12.1325C4.06795 12.2785 4.86015 12.2485 5.61477 12.0455C3.22192 11.5695 1.50041 9.49966 1.50041 7.09581C1.50041 7.07382 1.50041 7.05282 1.50041 7.03182C2.21339 7.42279 3.01168 7.63978 3.82826 7.66378C1.57455 6.18087 0.87985 3.22906 2.24081 0.921204C4.84491 4.076 8.68708 5.99388 12.8116 6.19687C12.3982 4.44298 12.9629 2.6051 14.2955 1.37218C16.3613 -0.539704 19.6103 -0.44171 21.5522 1.59116C22.7009 1.36818 23.8018 0.953202 24.8094 0.365239C24.4265 1.53417 23.6251 2.5271 22.5546 3.15806C23.5713 3.04007 24.5646 2.77209 25.5 2.36311C24.8114 3.37905 23.944 4.26399 22.9406 4.97895Z" fill="white"/>
</svg>
