<svg width="25" height="26" viewBox="0 0 25 26" fill="none" xmlns="http://www.w3.org/2000/svg">
<path fill-rule="evenodd" clip-rule="evenodd" d="M12.5 0.5C9.105 0.5 8.68 0.514167 7.34667 0.575C6.01583 0.635833 5.10667 0.8475 4.31167 1.15667C3.47833 1.47 2.7225 1.96167 2.0975 2.59833C1.46185 3.22261 0.969882 3.97791 0.655833 4.81167C0.348333 5.60667 0.135833 6.51667 0.075 7.8475C0.015 9.18 0 9.60417 0 13C0 16.3958 0.0141667 16.82 0.075 18.1533C0.135833 19.4842 0.3475 20.3933 0.656667 21.1883C0.97 22.0217 1.46167 22.7775 2.09833 23.4025C2.72263 24.0381 3.47792 24.5301 4.31167 24.8442C5.10667 25.1525 6.01583 25.3642 7.34667 25.425C8.68 25.4858 9.105 25.5 12.5 25.5C15.895 25.5 16.32 25.4858 17.6533 25.425C18.9842 25.3642 19.8933 25.1525 20.6883 24.8433C21.5217 24.53 22.2775 24.0383 22.9025 23.4017C23.5381 22.7774 24.0301 22.0221 24.3442 21.1883C24.6525 20.3933 24.8642 19.4842 24.925 18.1533C24.9858 16.82 25 16.395 25 13C25 9.605 24.9858 9.18 24.925 7.84667C24.8642 6.51583 24.6525 5.60667 24.3433 4.81167C24.0295 3.97755 23.5375 3.22193 22.9017 2.5975C22.2774 1.96185 21.5221 1.46988 20.6883 1.15583C19.8933 0.848333 18.9833 0.635833 17.6525 0.575C16.32 0.515 15.8958 0.5 12.5 0.5ZM12.5 2.7525C15.8375 2.7525 16.2333 2.765 17.5517 2.825C18.77 2.88083 19.4317 3.08333 19.8725 3.25583C20.4558 3.48167 20.8725 3.75333 21.31 4.19C21.7475 4.6275 22.0183 5.04417 22.2442 5.6275C22.4158 6.06833 22.6192 6.73 22.675 7.94833C22.735 9.26667 22.7475 9.6625 22.7475 13C22.7475 16.3375 22.735 16.7333 22.675 18.0517C22.6192 19.27 22.4167 19.9317 22.2442 20.3725C22.0441 20.9155 21.7249 21.4067 21.31 21.81C20.9067 22.225 20.4155 22.5442 19.8725 22.7442C19.4317 22.9158 18.77 23.1192 17.5517 23.175C16.2333 23.235 15.8383 23.2475 12.5 23.2475C9.16167 23.2475 8.76667 23.235 7.44833 23.175C6.23 23.1192 5.56833 22.9167 5.1275 22.7442C4.58455 22.5441 4.09334 22.2249 3.69 21.81C3.27515 21.4066 2.95594 20.9154 2.75583 20.3725C2.58417 19.9317 2.38083 19.27 2.325 18.0517C2.265 16.7333 2.2525 16.3375 2.2525 13C2.2525 9.6625 2.265 9.26667 2.325 7.94833C2.38083 6.73 2.58333 6.06833 2.75583 5.6275C2.98167 5.04417 3.25333 4.6275 3.69 4.19C4.09328 3.77504 4.58451 3.45581 5.1275 3.25583C5.56833 3.08417 6.23 2.88083 7.44833 2.825C8.76667 2.765 9.1625 2.7525 12.5 2.7525Z" fill="#00236A"/>
</svg>
