<svg width="50" height="45" viewBox="0 0 50 45" fill="none" xmlns="http://www.w3.org/2000/svg">
<mask id="path-1-outside-1_2043_2365" maskUnits="userSpaceOnUse" x="-1" y="-0.0820312" width="52" height="45" fill="black">
<rect fill="white" x="-1" y="-0.0820312" width="52" height="45"/>
<path d="M28.5344 39.9044H26.5729C26.4213 39.9047 26.271 39.8751 26.1308 39.8172C25.9906 39.7594 25.8632 39.6746 25.7558 39.5675C25.6484 39.4604 25.5632 39.3332 25.505 39.1931C25.4468 39.0531 25.4168 38.9029 25.4167 38.7513C25.4167 38.5441 25.3344 38.3454 25.1878 38.1989C25.0413 38.0523 24.8426 37.97 24.6354 37.97C24.4282 37.97 24.2295 38.0523 24.083 38.1989C23.9365 38.3454 23.8542 38.5441 23.8542 38.7513C23.855 39.4713 24.1414 40.1615 24.6505 40.6706C25.1596 41.1797 25.8498 41.4661 26.5698 41.4669H26.7708V42.9648C26.7708 43.172 26.8531 43.3707 26.9997 43.5173C27.1462 43.6638 27.3449 43.7461 27.5521 43.7461C27.7593 43.7461 27.958 43.6638 28.1045 43.5173C28.251 43.3707 28.3333 43.172 28.3333 42.9648V41.4669H28.5323C29.2525 41.4669 29.9432 41.1808 30.4525 40.6715C30.9618 40.1622 31.2479 39.4715 31.2479 38.7513C31.2479 38.0311 30.9618 37.3403 30.4525 36.831C29.9432 36.3218 29.2525 36.0357 28.5323 36.0357H26.5729C26.273 36.0266 25.9883 35.9011 25.7793 35.6858C25.5703 35.4704 25.4534 35.1821 25.4534 34.882C25.4534 34.5819 25.5703 34.2936 25.7793 34.0782C25.9883 33.8629 26.273 33.7374 26.5729 33.7284H28.5344C28.8401 33.7286 29.1333 33.8502 29.3495 34.0664C29.5656 34.2826 29.6872 34.5757 29.6875 34.8815C29.6875 35.0887 29.7698 35.2874 29.9163 35.4339C30.0628 35.5804 30.2615 35.6627 30.4687 35.6627C30.6759 35.6627 30.8747 35.5804 31.0212 35.4339C31.1677 35.2874 31.25 35.0887 31.25 34.8815C31.2492 34.1615 30.9628 33.4713 30.4537 32.9622C29.9446 32.4531 29.2543 32.1667 28.5344 32.1659H28.3333V30.6669C28.3333 30.4597 28.251 30.261 28.1045 30.1145C27.958 29.968 27.7593 29.8857 27.5521 29.8857C27.3449 29.8857 27.1462 29.968 26.9997 30.1145C26.8531 30.261 26.7708 30.4597 26.7708 30.6669V32.1659H26.5729C25.8618 32.1798 25.1844 32.4721 24.6864 32.9799C24.1884 33.4878 23.9094 34.1707 23.9094 34.882C23.9094 35.5933 24.1884 36.2762 24.6864 36.7841C25.1844 37.2919 25.8618 37.5842 26.5729 37.5982H28.5344C28.8402 37.5982 29.1335 37.7196 29.3498 37.9359C29.566 38.1521 29.6875 38.4455 29.6875 38.7513C29.6875 39.0571 29.566 39.3504 29.3498 39.5667C29.1335 39.7829 28.8402 39.9044 28.5344 39.9044ZM46.2677 15.2888C46.0704 15.2404 45.8619 15.2708 45.6866 15.3736C45.5113 15.4763 45.383 15.6433 45.3287 15.8391C45.2745 16.035 45.2988 16.2442 45.3963 16.4225C45.4938 16.6007 45.6569 16.734 45.851 16.794C47.9646 17.3815 48.4406 18.044 48.4406 18.2232C48.4406 18.8752 45.3833 20.4044 39.4562 20.4044C33.5292 20.4044 30.4708 18.8752 30.4708 18.2232C30.4708 17.5711 33.5271 16.0419 39.4562 16.0419C40.8585 16.0368 42.2592 16.1354 43.6469 16.3367C43.849 16.3607 44.0524 16.3051 44.2142 16.1816C44.3759 16.058 44.4831 15.8763 44.5131 15.675C44.543 15.4737 44.4934 15.2687 44.3746 15.1034C44.2559 14.9382 44.0774 14.8257 43.8771 14.7898C42.4131 14.5779 40.9355 14.4735 39.4562 14.4773C34.376 14.4773 28.9083 15.6492 28.9083 18.2211V24.2992C28.9083 26.8711 34.376 28.0429 39.4562 28.0429C42.8708 28.0429 46.4542 27.5107 48.4406 26.3815V27.3377C48.4406 27.9898 45.3833 29.519 39.4562 29.519C38.776 29.519 38.1135 29.4982 37.4771 29.4565C37.2703 29.4444 37.0671 29.5141 36.9112 29.6505C36.7553 29.7869 36.6592 29.9791 36.6437 30.1857C36.6365 30.2883 36.6497 30.3914 36.6825 30.489C36.7153 30.5865 36.7671 30.6766 36.8349 30.7541C36.9027 30.8316 36.9851 30.8948 37.0774 30.9403C37.1698 30.9858 37.2702 31.0125 37.3729 31.019C38.0448 31.0627 38.7417 31.0857 39.4562 31.0857C42.8708 31.0857 46.4542 30.5534 48.4406 29.419V30.3752C48.4406 31.0273 45.3833 32.5627 39.4562 32.5627H39.199C39.1552 32.5627 39.1302 32.5627 38.9906 32.5627C38.7857 32.5641 38.589 32.643 38.4398 32.7834C38.2906 32.9239 38.2001 33.1156 38.1865 33.32C38.1806 33.5273 38.2571 33.7284 38.3992 33.8793C38.5414 34.0303 38.7376 34.1187 38.9448 34.1252C39.049 34.1252 39.1146 34.1252 39.1583 34.1252H39.2625H39.4646C42.8792 34.1252 46.4625 33.5919 48.449 32.4586V33.4148C48.449 34.0669 45.3917 35.5961 39.4646 35.5961C39.2574 35.5961 39.0587 35.6784 38.9122 35.8249C38.7656 35.9714 38.6833 36.1701 38.6833 36.3773C38.6833 36.5845 38.7656 36.7832 38.9122 36.9298C39.0587 37.0763 39.2574 37.1586 39.4646 37.1586C42.8792 37.1586 46.4625 36.6252 48.449 35.4971V36.5294C48.449 37.1815 45.3917 38.7107 39.4646 38.7107H39.1844C38.9806 38.7195 38.7873 38.8033 38.6416 38.9459C38.4958 39.0886 38.408 39.2801 38.3948 39.4836C38.3928 39.6907 38.4731 39.8901 38.618 40.0382C38.7629 40.1862 38.9606 40.2707 39.1677 40.2732H39.4646C44.5323 40.2763 50 39.1044 50 36.5325V18.2232C50 17.3586 49.3521 16.1482 46.2677 15.2888ZM39.4531 21.9669C42.8677 21.9669 46.451 21.4346 48.4375 20.3054V21.2617C48.4375 21.9138 45.3802 23.4492 39.4531 23.4492C33.526 23.4492 30.4677 21.919 30.4677 21.2617V20.3054C32.4542 21.4346 36.0417 21.9669 39.4531 21.9669ZM39.4531 26.4825C33.524 26.4825 30.4677 24.9534 30.4677 24.3013V23.345C32.4542 24.4742 36.0365 25.0117 39.4531 25.0117C42.8698 25.0117 46.451 24.4794 48.4375 23.345V24.3013C48.4375 24.9534 45.3802 26.4825 39.4531 26.4825ZM16.4583 40.9586C16.1833 40.969 15.9062 40.9752 15.625 40.9752C7.34375 40.9752 1.5625 36.2242 1.5625 29.4221C1.5625 23.8752 5.3125 15.6721 10.9052 12.3023C10.9812 12.2554 11.0448 12.1982 11.1135 12.1461H17.5C17.7072 12.1461 17.9059 12.0638 18.0524 11.9173C18.1989 11.7707 18.2812 11.572 18.2812 11.3648C18.2812 11.1576 18.1989 10.9589 18.0524 10.8124C17.9059 10.6659 17.7072 10.5836 17.5 10.5836H12.099C12.2055 9.99635 12.0841 9.39058 11.7594 8.88982C9.11875 4.7992 8.60521 2.95857 8.70104 2.48149C8.7111 2.48738 8.72277 2.48993 8.73438 2.48878C9.90755 2.49696 11.0734 2.67448 12.1958 3.01586C13.2818 3.34593 14.4088 3.52127 15.5437 3.5367C16.8268 3.50522 18.1012 3.31702 19.3385 2.97628C20.3191 2.70626 21.326 2.54281 22.3417 2.48878C22.3135 3.07732 21.7302 4.81586 19.7125 8.25961H13.75C13.5428 8.25961 13.3441 8.34193 13.1976 8.48844C13.0511 8.63495 12.9687 8.83366 12.9687 9.04086C12.9687 9.24806 13.0511 9.44678 13.1976 9.59329C13.3441 9.7398 13.5428 9.82211 13.75 9.82211H19.0229C18.9844 10.1133 19.0014 10.4091 19.0729 10.694C19.1566 11.0176 19.3041 11.3212 19.5068 11.587C19.7095 11.8529 19.9632 12.0755 20.2531 12.2419C23.0654 14.0735 25.346 16.6131 26.8656 19.6054C26.9132 19.6982 26.9788 19.7806 27.0586 19.8476C27.1385 19.9146 27.2309 19.965 27.3305 19.9958C27.4301 20.0265 27.5349 20.037 27.6386 20.0266C27.7423 20.0163 27.8429 19.9853 27.9345 19.9354C28.0261 19.8856 28.1067 19.8179 28.1717 19.7364C28.2367 19.6549 28.2848 19.5612 28.313 19.4609C28.3412 19.3605 28.3491 19.2555 28.3361 19.1521C28.3232 19.0486 28.2896 18.9488 28.2375 18.8586C26.5835 15.6188 24.1043 12.8726 21.05 10.8971C20.938 10.8349 20.8396 10.7509 20.7603 10.6503C20.6811 10.5496 20.6227 10.4341 20.5885 10.3107C20.5619 10.207 20.5566 10.0989 20.5728 9.99313C20.5891 9.88731 20.6267 9.7859 20.6833 9.69503C24.6042 3.17212 23.9708 2.05232 23.7042 1.57003C23.5854 1.36456 23.4128 1.19537 23.2051 1.08065C22.9973 0.965937 22.7622 0.910045 22.525 0.91899C21.3273 0.953437 20.1382 1.13216 18.9833 1.45128C17.8629 1.76391 16.7086 1.93882 15.5458 1.97211C14.5459 1.95435 13.5534 1.79549 12.5979 1.50024C11.3445 1.12595 10.0445 0.930964 8.73646 0.921073C8.45703 0.902975 8.17818 0.964281 7.93212 1.09791C7.68605 1.23155 7.4828 1.43205 7.34583 1.67628C7.08333 2.15857 6.38542 3.43982 10.449 9.73357C10.5101 9.82424 10.5517 9.92659 10.5713 10.0342C10.5908 10.1417 10.5878 10.2522 10.5625 10.3586C10.5302 10.4854 10.4726 10.6044 10.3931 10.7084C10.3136 10.8124 10.2139 10.8993 10.1 10.9638C4.0625 14.6065 0 23.4492 0 29.4221C0 37.0211 6.57292 42.5419 15.625 42.5419C15.925 42.5419 16.2229 42.5357 16.5187 42.5232C16.6213 42.5191 16.7221 42.4949 16.8154 42.4519C16.9086 42.4089 16.9925 42.348 17.0622 42.2726C17.1319 42.1972 17.186 42.1088 17.2216 42.0125C17.2571 41.9162 17.2733 41.8138 17.2693 41.7112C17.2652 41.6086 17.241 41.5078 17.198 41.4145C17.1551 41.3213 17.0941 41.2374 17.0187 41.1678C16.9433 41.0981 16.8549 41.0439 16.7586 41.0084C16.6623 40.9728 16.5599 40.9566 16.4573 40.9607L16.4583 40.9586Z"/>
</mask>
<path d="M28.5344 39.9044H26.5729C26.4213 39.9047 26.271 39.8751 26.1308 39.8172C25.9906 39.7594 25.8632 39.6746 25.7558 39.5675C25.6484 39.4604 25.5632 39.3332 25.505 39.1931C25.4468 39.0531 25.4168 38.9029 25.4167 38.7513C25.4167 38.5441 25.3344 38.3454 25.1878 38.1989C25.0413 38.0523 24.8426 37.97 24.6354 37.97C24.4282 37.97 24.2295 38.0523 24.083 38.1989C23.9365 38.3454 23.8542 38.5441 23.8542 38.7513C23.855 39.4713 24.1414 40.1615 24.6505 40.6706C25.1596 41.1797 25.8498 41.4661 26.5698 41.4669H26.7708V42.9648C26.7708 43.172 26.8531 43.3707 26.9997 43.5173C27.1462 43.6638 27.3449 43.7461 27.5521 43.7461C27.7593 43.7461 27.958 43.6638 28.1045 43.5173C28.251 43.3707 28.3333 43.172 28.3333 42.9648V41.4669H28.5323C29.2525 41.4669 29.9432 41.1808 30.4525 40.6715C30.9618 40.1622 31.2479 39.4715 31.2479 38.7513C31.2479 38.0311 30.9618 37.3403 30.4525 36.831C29.9432 36.3218 29.2525 36.0357 28.5323 36.0357H26.5729C26.273 36.0266 25.9883 35.9011 25.7793 35.6858C25.5703 35.4704 25.4534 35.1821 25.4534 34.882C25.4534 34.5819 25.5703 34.2936 25.7793 34.0782C25.9883 33.8629 26.273 33.7374 26.5729 33.7284H28.5344C28.8401 33.7286 29.1333 33.8502 29.3495 34.0664C29.5656 34.2826 29.6872 34.5757 29.6875 34.8815C29.6875 35.0887 29.7698 35.2874 29.9163 35.4339C30.0628 35.5804 30.2615 35.6627 30.4687 35.6627C30.6759 35.6627 30.8747 35.5804 31.0212 35.4339C31.1677 35.2874 31.25 35.0887 31.25 34.8815C31.2492 34.1615 30.9628 33.4713 30.4537 32.9622C29.9446 32.4531 29.2543 32.1667 28.5344 32.1659H28.3333V30.6669C28.3333 30.4597 28.251 30.261 28.1045 30.1145C27.958 29.968 27.7593 29.8857 27.5521 29.8857C27.3449 29.8857 27.1462 29.968 26.9997 30.1145C26.8531 30.261 26.7708 30.4597 26.7708 30.6669V32.1659H26.5729C25.8618 32.1798 25.1844 32.4721 24.6864 32.9799C24.1884 33.4878 23.9094 34.1707 23.9094 34.882C23.9094 35.5933 24.1884 36.2762 24.6864 36.7841C25.1844 37.2919 25.8618 37.5842 26.5729 37.5982H28.5344C28.8402 37.5982 29.1335 37.7196 29.3498 37.9359C29.566 38.1521 29.6875 38.4455 29.6875 38.7513C29.6875 39.0571 29.566 39.3504 29.3498 39.5667C29.1335 39.7829 28.8402 39.9044 28.5344 39.9044ZM46.2677 15.2888C46.0704 15.2404 45.8619 15.2708 45.6866 15.3736C45.5113 15.4763 45.383 15.6433 45.3287 15.8391C45.2745 16.035 45.2988 16.2442 45.3963 16.4225C45.4938 16.6007 45.6569 16.734 45.851 16.794C47.9646 17.3815 48.4406 18.044 48.4406 18.2232C48.4406 18.8752 45.3833 20.4044 39.4562 20.4044C33.5292 20.4044 30.4708 18.8752 30.4708 18.2232C30.4708 17.5711 33.5271 16.0419 39.4562 16.0419C40.8585 16.0368 42.2592 16.1354 43.6469 16.3367C43.849 16.3607 44.0524 16.3051 44.2142 16.1816C44.3759 16.058 44.4831 15.8763 44.5131 15.675C44.543 15.4737 44.4934 15.2687 44.3746 15.1034C44.2559 14.9382 44.0774 14.8257 43.8771 14.7898C42.4131 14.5779 40.9355 14.4735 39.4562 14.4773C34.376 14.4773 28.9083 15.6492 28.9083 18.2211V24.2992C28.9083 26.8711 34.376 28.0429 39.4562 28.0429C42.8708 28.0429 46.4542 27.5107 48.4406 26.3815V27.3377C48.4406 27.9898 45.3833 29.519 39.4562 29.519C38.776 29.519 38.1135 29.4982 37.4771 29.4565C37.2703 29.4444 37.0671 29.5141 36.9112 29.6505C36.7553 29.7869 36.6592 29.9791 36.6437 30.1857C36.6365 30.2883 36.6497 30.3914 36.6825 30.489C36.7153 30.5865 36.7671 30.6766 36.8349 30.7541C36.9027 30.8316 36.9851 30.8948 37.0774 30.9403C37.1698 30.9858 37.2702 31.0125 37.3729 31.019C38.0448 31.0627 38.7417 31.0857 39.4562 31.0857C42.8708 31.0857 46.4542 30.5534 48.4406 29.419V30.3752C48.4406 31.0273 45.3833 32.5627 39.4562 32.5627H39.199C39.1552 32.5627 39.1302 32.5627 38.9906 32.5627C38.7857 32.5641 38.589 32.643 38.4398 32.7834C38.2906 32.9239 38.2001 33.1156 38.1865 33.32C38.1806 33.5273 38.2571 33.7284 38.3992 33.8793C38.5414 34.0303 38.7376 34.1187 38.9448 34.1252C39.049 34.1252 39.1146 34.1252 39.1583 34.1252H39.2625H39.4646C42.8792 34.1252 46.4625 33.5919 48.449 32.4586V33.4148C48.449 34.0669 45.3917 35.5961 39.4646 35.5961C39.2574 35.5961 39.0587 35.6784 38.9122 35.8249C38.7656 35.9714 38.6833 36.1701 38.6833 36.3773C38.6833 36.5845 38.7656 36.7832 38.9122 36.9298C39.0587 37.0763 39.2574 37.1586 39.4646 37.1586C42.8792 37.1586 46.4625 36.6252 48.449 35.4971V36.5294C48.449 37.1815 45.3917 38.7107 39.4646 38.7107H39.1844C38.9806 38.7195 38.7873 38.8033 38.6416 38.9459C38.4958 39.0886 38.408 39.2801 38.3948 39.4836C38.3928 39.6907 38.4731 39.8901 38.618 40.0382C38.7629 40.1862 38.9606 40.2707 39.1677 40.2732H39.4646C44.5323 40.2763 50 39.1044 50 36.5325V18.2232C50 17.3586 49.3521 16.1482 46.2677 15.2888ZM39.4531 21.9669C42.8677 21.9669 46.451 21.4346 48.4375 20.3054V21.2617C48.4375 21.9138 45.3802 23.4492 39.4531 23.4492C33.526 23.4492 30.4677 21.919 30.4677 21.2617V20.3054C32.4542 21.4346 36.0417 21.9669 39.4531 21.9669ZM39.4531 26.4825C33.524 26.4825 30.4677 24.9534 30.4677 24.3013V23.345C32.4542 24.4742 36.0365 25.0117 39.4531 25.0117C42.8698 25.0117 46.451 24.4794 48.4375 23.345V24.3013C48.4375 24.9534 45.3802 26.4825 39.4531 26.4825ZM16.4583 40.9586C16.1833 40.969 15.9062 40.9752 15.625 40.9752C7.34375 40.9752 1.5625 36.2242 1.5625 29.4221C1.5625 23.8752 5.3125 15.6721 10.9052 12.3023C10.9812 12.2554 11.0448 12.1982 11.1135 12.1461H17.5C17.7072 12.1461 17.9059 12.0638 18.0524 11.9173C18.1989 11.7707 18.2812 11.572 18.2812 11.3648C18.2812 11.1576 18.1989 10.9589 18.0524 10.8124C17.9059 10.6659 17.7072 10.5836 17.5 10.5836H12.099C12.2055 9.99635 12.0841 9.39058 11.7594 8.88982C9.11875 4.7992 8.60521 2.95857 8.70104 2.48149C8.7111 2.48738 8.72277 2.48993 8.73438 2.48878C9.90755 2.49696 11.0734 2.67448 12.1958 3.01586C13.2818 3.34593 14.4088 3.52127 15.5437 3.5367C16.8268 3.50522 18.1012 3.31702 19.3385 2.97628C20.3191 2.70626 21.326 2.54281 22.3417 2.48878C22.3135 3.07732 21.7302 4.81586 19.7125 8.25961H13.75C13.5428 8.25961 13.3441 8.34193 13.1976 8.48844C13.0511 8.63495 12.9687 8.83366 12.9687 9.04086C12.9687 9.24806 13.0511 9.44678 13.1976 9.59329C13.3441 9.7398 13.5428 9.82211 13.75 9.82211H19.0229C18.9844 10.1133 19.0014 10.4091 19.0729 10.694C19.1566 11.0176 19.3041 11.3212 19.5068 11.587C19.7095 11.8529 19.9632 12.0755 20.2531 12.2419C23.0654 14.0735 25.346 16.6131 26.8656 19.6054C26.9132 19.6982 26.9788 19.7806 27.0586 19.8476C27.1385 19.9146 27.2309 19.965 27.3305 19.9958C27.4301 20.0265 27.5349 20.037 27.6386 20.0266C27.7423 20.0163 27.8429 19.9853 27.9345 19.9354C28.0261 19.8856 28.1067 19.8179 28.1717 19.7364C28.2367 19.6549 28.2848 19.5612 28.313 19.4609C28.3412 19.3605 28.3491 19.2555 28.3361 19.1521C28.3232 19.0486 28.2896 18.9488 28.2375 18.8586C26.5835 15.6188 24.1043 12.8726 21.05 10.8971C20.938 10.8349 20.8396 10.7509 20.7603 10.6503C20.6811 10.5496 20.6227 10.4341 20.5885 10.3107C20.5619 10.207 20.5566 10.0989 20.5728 9.99313C20.5891 9.88731 20.6267 9.7859 20.6833 9.69503C24.6042 3.17212 23.9708 2.05232 23.7042 1.57003C23.5854 1.36456 23.4128 1.19537 23.2051 1.08065C22.9973 0.965937 22.7622 0.910045 22.525 0.91899C21.3273 0.953437 20.1382 1.13216 18.9833 1.45128C17.8629 1.76391 16.7086 1.93882 15.5458 1.97211C14.5459 1.95435 13.5534 1.79549 12.5979 1.50024C11.3445 1.12595 10.0445 0.930964 8.73646 0.921073C8.45703 0.902975 8.17818 0.964281 7.93212 1.09791C7.68605 1.23155 7.4828 1.43205 7.34583 1.67628C7.08333 2.15857 6.38542 3.43982 10.449 9.73357C10.5101 9.82424 10.5517 9.92659 10.5713 10.0342C10.5908 10.1417 10.5878 10.2522 10.5625 10.3586C10.5302 10.4854 10.4726 10.6044 10.3931 10.7084C10.3136 10.8124 10.2139 10.8993 10.1 10.9638C4.0625 14.6065 0 23.4492 0 29.4221C0 37.0211 6.57292 42.5419 15.625 42.5419C15.925 42.5419 16.2229 42.5357 16.5187 42.5232C16.6213 42.5191 16.7221 42.4949 16.8154 42.4519C16.9086 42.4089 16.9925 42.348 17.0622 42.2726C17.1319 42.1972 17.186 42.1088 17.2216 42.0125C17.2571 41.9162 17.2733 41.8138 17.2693 41.7112C17.2652 41.6086 17.241 41.5078 17.198 41.4145C17.1551 41.3213 17.0941 41.2374 17.0187 41.1678C16.9433 41.0981 16.8549 41.0439 16.7586 41.0084C16.6623 40.9728 16.5599 40.9566 16.4573 40.9607L16.4583 40.9586Z" fill="#00236A"/>
<path d="M28.5344 39.9044H26.5729C26.4213 39.9047 26.271 39.8751 26.1308 39.8172C25.9906 39.7594 25.8632 39.6746 25.7558 39.5675C25.6484 39.4604 25.5632 39.3332 25.505 39.1931C25.4468 39.0531 25.4168 38.9029 25.4167 38.7513C25.4167 38.5441 25.3344 38.3454 25.1878 38.1989C25.0413 38.0523 24.8426 37.97 24.6354 37.97C24.4282 37.97 24.2295 38.0523 24.083 38.1989C23.9365 38.3454 23.8542 38.5441 23.8542 38.7513C23.855 39.4713 24.1414 40.1615 24.6505 40.6706C25.1596 41.1797 25.8498 41.4661 26.5698 41.4669H26.7708V42.9648C26.7708 43.172 26.8531 43.3707 26.9997 43.5173C27.1462 43.6638 27.3449 43.7461 27.5521 43.7461C27.7593 43.7461 27.958 43.6638 28.1045 43.5173C28.251 43.3707 28.3333 43.172 28.3333 42.9648V41.4669H28.5323C29.2525 41.4669 29.9432 41.1808 30.4525 40.6715C30.9618 40.1622 31.2479 39.4715 31.2479 38.7513C31.2479 38.0311 30.9618 37.3403 30.4525 36.831C29.9432 36.3218 29.2525 36.0357 28.5323 36.0357H26.5729C26.273 36.0266 25.9883 35.9011 25.7793 35.6858C25.5703 35.4704 25.4534 35.1821 25.4534 34.882C25.4534 34.5819 25.5703 34.2936 25.7793 34.0782C25.9883 33.8629 26.273 33.7374 26.5729 33.7284H28.5344C28.8401 33.7286 29.1333 33.8502 29.3495 34.0664C29.5656 34.2826 29.6872 34.5757 29.6875 34.8815C29.6875 35.0887 29.7698 35.2874 29.9163 35.4339C30.0628 35.5804 30.2615 35.6627 30.4687 35.6627C30.6759 35.6627 30.8747 35.5804 31.0212 35.4339C31.1677 35.2874 31.25 35.0887 31.25 34.8815C31.2492 34.1615 30.9628 33.4713 30.4537 32.9622C29.9446 32.4531 29.2543 32.1667 28.5344 32.1659H28.3333V30.6669C28.3333 30.4597 28.251 30.261 28.1045 30.1145C27.958 29.968 27.7593 29.8857 27.5521 29.8857C27.3449 29.8857 27.1462 29.968 26.9997 30.1145C26.8531 30.261 26.7708 30.4597 26.7708 30.6669V32.1659H26.5729C25.8618 32.1798 25.1844 32.4721 24.6864 32.9799C24.1884 33.4878 23.9094 34.1707 23.9094 34.882C23.9094 35.5933 24.1884 36.2762 24.6864 36.7841C25.1844 37.2919 25.8618 37.5842 26.5729 37.5982H28.5344C28.8402 37.5982 29.1335 37.7196 29.3498 37.9359C29.566 38.1521 29.6875 38.4455 29.6875 38.7513C29.6875 39.0571 29.566 39.3504 29.3498 39.5667C29.1335 39.7829 28.8402 39.9044 28.5344 39.9044ZM46.2677 15.2888C46.0704 15.2404 45.8619 15.2708 45.6866 15.3736C45.5113 15.4763 45.383 15.6433 45.3287 15.8391C45.2745 16.035 45.2988 16.2442 45.3963 16.4225C45.4938 16.6007 45.6569 16.734 45.851 16.794C47.9646 17.3815 48.4406 18.044 48.4406 18.2232C48.4406 18.8752 45.3833 20.4044 39.4562 20.4044C33.5292 20.4044 30.4708 18.8752 30.4708 18.2232C30.4708 17.5711 33.5271 16.0419 39.4562 16.0419C40.8585 16.0368 42.2592 16.1354 43.6469 16.3367C43.849 16.3607 44.0524 16.3051 44.2142 16.1816C44.3759 16.058 44.4831 15.8763 44.5131 15.675C44.543 15.4737 44.4934 15.2687 44.3746 15.1034C44.2559 14.9382 44.0774 14.8257 43.8771 14.7898C42.4131 14.5779 40.9355 14.4735 39.4562 14.4773C34.376 14.4773 28.9083 15.6492 28.9083 18.2211V24.2992C28.9083 26.8711 34.376 28.0429 39.4562 28.0429C42.8708 28.0429 46.4542 27.5107 48.4406 26.3815V27.3377C48.4406 27.9898 45.3833 29.519 39.4562 29.519C38.776 29.519 38.1135 29.4982 37.4771 29.4565C37.2703 29.4444 37.0671 29.5141 36.9112 29.6505C36.7553 29.7869 36.6592 29.9791 36.6437 30.1857C36.6365 30.2883 36.6497 30.3914 36.6825 30.489C36.7153 30.5865 36.7671 30.6766 36.8349 30.7541C36.9027 30.8316 36.9851 30.8948 37.0774 30.9403C37.1698 30.9858 37.2702 31.0125 37.3729 31.019C38.0448 31.0627 38.7417 31.0857 39.4562 31.0857C42.8708 31.0857 46.4542 30.5534 48.4406 29.419V30.3752C48.4406 31.0273 45.3833 32.5627 39.4562 32.5627H39.199C39.1552 32.5627 39.1302 32.5627 38.9906 32.5627C38.7857 32.5641 38.589 32.643 38.4398 32.7834C38.2906 32.9239 38.2001 33.1156 38.1865 33.32C38.1806 33.5273 38.2571 33.7284 38.3992 33.8793C38.5414 34.0303 38.7376 34.1187 38.9448 34.1252C39.049 34.1252 39.1146 34.1252 39.1583 34.1252H39.2625H39.4646C42.8792 34.1252 46.4625 33.5919 48.449 32.4586V33.4148C48.449 34.0669 45.3917 35.5961 39.4646 35.5961C39.2574 35.5961 39.0587 35.6784 38.9122 35.8249C38.7656 35.9714 38.6833 36.1701 38.6833 36.3773C38.6833 36.5845 38.7656 36.7832 38.9122 36.9298C39.0587 37.0763 39.2574 37.1586 39.4646 37.1586C42.8792 37.1586 46.4625 36.6252 48.449 35.4971V36.5294C48.449 37.1815 45.3917 38.7107 39.4646 38.7107H39.1844C38.9806 38.7195 38.7873 38.8033 38.6416 38.9459C38.4958 39.0886 38.408 39.2801 38.3948 39.4836C38.3928 39.6907 38.4731 39.8901 38.618 40.0382C38.7629 40.1862 38.9606 40.2707 39.1677 40.2732H39.4646C44.5323 40.2763 50 39.1044 50 36.5325V18.2232C50 17.3586 49.3521 16.1482 46.2677 15.2888ZM39.4531 21.9669C42.8677 21.9669 46.451 21.4346 48.4375 20.3054V21.2617C48.4375 21.9138 45.3802 23.4492 39.4531 23.4492C33.526 23.4492 30.4677 21.919 30.4677 21.2617V20.3054C32.4542 21.4346 36.0417 21.9669 39.4531 21.9669ZM39.4531 26.4825C33.524 26.4825 30.4677 24.9534 30.4677 24.3013V23.345C32.4542 24.4742 36.0365 25.0117 39.4531 25.0117C42.8698 25.0117 46.451 24.4794 48.4375 23.345V24.3013C48.4375 24.9534 45.3802 26.4825 39.4531 26.4825ZM16.4583 40.9586C16.1833 40.969 15.9062 40.9752 15.625 40.9752C7.34375 40.9752 1.5625 36.2242 1.5625 29.4221C1.5625 23.8752 5.3125 15.6721 10.9052 12.3023C10.9812 12.2554 11.0448 12.1982 11.1135 12.1461H17.5C17.7072 12.1461 17.9059 12.0638 18.0524 11.9173C18.1989 11.7707 18.2812 11.572 18.2812 11.3648C18.2812 11.1576 18.1989 10.9589 18.0524 10.8124C17.9059 10.6659 17.7072 10.5836 17.5 10.5836H12.099C12.2055 9.99635 12.0841 9.39058 11.7594 8.88982C9.11875 4.7992 8.60521 2.95857 8.70104 2.48149C8.7111 2.48738 8.72277 2.48993 8.73438 2.48878C9.90755 2.49696 11.0734 2.67448 12.1958 3.01586C13.2818 3.34593 14.4088 3.52127 15.5437 3.5367C16.8268 3.50522 18.1012 3.31702 19.3385 2.97628C20.3191 2.70626 21.326 2.54281 22.3417 2.48878C22.3135 3.07732 21.7302 4.81586 19.7125 8.25961H13.75C13.5428 8.25961 13.3441 8.34193 13.1976 8.48844C13.0511 8.63495 12.9687 8.83366 12.9687 9.04086C12.9687 9.24806 13.0511 9.44678 13.1976 9.59329C13.3441 9.7398 13.5428 9.82211 13.75 9.82211H19.0229C18.9844 10.1133 19.0014 10.4091 19.0729 10.694C19.1566 11.0176 19.3041 11.3212 19.5068 11.587C19.7095 11.8529 19.9632 12.0755 20.2531 12.2419C23.0654 14.0735 25.346 16.6131 26.8656 19.6054C26.9132 19.6982 26.9788 19.7806 27.0586 19.8476C27.1385 19.9146 27.2309 19.965 27.3305 19.9958C27.4301 20.0265 27.5349 20.037 27.6386 20.0266C27.7423 20.0163 27.8429 19.9853 27.9345 19.9354C28.0261 19.8856 28.1067 19.8179 28.1717 19.7364C28.2367 19.6549 28.2848 19.5612 28.313 19.4609C28.3412 19.3605 28.3491 19.2555 28.3361 19.1521C28.3232 19.0486 28.2896 18.9488 28.2375 18.8586C26.5835 15.6188 24.1043 12.8726 21.05 10.8971C20.938 10.8349 20.8396 10.7509 20.7603 10.6503C20.6811 10.5496 20.6227 10.4341 20.5885 10.3107C20.5619 10.207 20.5566 10.0989 20.5728 9.99313C20.5891 9.88731 20.6267 9.7859 20.6833 9.69503C24.6042 3.17212 23.9708 2.05232 23.7042 1.57003C23.5854 1.36456 23.4128 1.19537 23.2051 1.08065C22.9973 0.965937 22.7622 0.910045 22.525 0.91899C21.3273 0.953437 20.1382 1.13216 18.9833 1.45128C17.8629 1.76391 16.7086 1.93882 15.5458 1.97211C14.5459 1.95435 13.5534 1.79549 12.5979 1.50024C11.3445 1.12595 10.0445 0.930964 8.73646 0.921073C8.45703 0.902975 8.17818 0.964281 7.93212 1.09791C7.68605 1.23155 7.4828 1.43205 7.34583 1.67628C7.08333 2.15857 6.38542 3.43982 10.449 9.73357C10.5101 9.82424 10.5517 9.92659 10.5713 10.0342C10.5908 10.1417 10.5878 10.2522 10.5625 10.3586C10.5302 10.4854 10.4726 10.6044 10.3931 10.7084C10.3136 10.8124 10.2139 10.8993 10.1 10.9638C4.0625 14.6065 0 23.4492 0 29.4221C0 37.0211 6.57292 42.5419 15.625 42.5419C15.925 42.5419 16.2229 42.5357 16.5187 42.5232C16.6213 42.5191 16.7221 42.4949 16.8154 42.4519C16.9086 42.4089 16.9925 42.348 17.0622 42.2726C17.1319 42.1972 17.186 42.1088 17.2216 42.0125C17.2571 41.9162 17.2733 41.8138 17.2693 41.7112C17.2652 41.6086 17.241 41.5078 17.198 41.4145C17.1551 41.3213 17.0941 41.2374 17.0187 41.1678C16.9433 41.0981 16.8549 41.0439 16.7586 41.0084C16.6623 40.9728 16.5599 40.9566 16.4573 40.9607L16.4583 40.9586Z" stroke="#00236A" stroke-width="0.6" mask="url(#path-1-outside-1_2043_2365)"/>
</svg>
